<svg xmlns="http://www.w3.org/2000/svg" width="138" height="60"><path fill="#" d="M31.994 41.922v.027-.054.082q0 .027-.04.068t-.042.068v.028q0 .04.014.164t.013.177v.082q-.04.096-.054.322t-.055.321q0 .137-.055.355 0 .233-.054.288.054.027.054.136-.013.055-.047.253t-.082.342-.103.226q-.027.027-.027.082 0 .027.013.068t.014.068l-.055.11q-.068.11-.273.205-.356.205-.615.3-.028.028-.028.137v.287q-.04.178-.205.22-.055.013-.178.143t-.26.116q-.122-.014-.225-.123t-.17-.11q-.055 0-.11.028-.014.014-.178.123t-.246.137q-.438.109-.479.109-.177 0-.218-.11h-.137q-.068 0-.232-.027t-.247-.027-.136.027h-.15q-.096 0-.329-.048t-.342-.047q-.082 0-.177-.014t-.123-.014q-.096 0-.15.028-.288.095-.301.095h-.055q-.15-.04-.15-.205 0-.082.068-.219-.028-.013-.171-.095t-.171-.096q-.068-.027-.26-.184t-.3-.158q-.083 0-.11.028-.055.027-.11.027-.081 0-.116-.103t-.04-.26-.021-.198q-.041-.054-.11-.273-.081.055-.239.267t-.294.266q-.123.069-.369.144t-.328.13q-.068.04-.15.273t-.15.287q-.11.11-.26.11-.233.177-.37.205t-.32-.11-.267-.123q-.082.055-.247.157t-.246.158h-.054q-.014 0-.062-.028t-.061-.027q-.028 0-.055.027-.041.028-.15.069t-.15.068q-.247.082-.315.082-.11 0-.192-.082-.136.027-.437-.068t-.383-.192q-.178.014-.889-.218h-.082q-.082 0-.177.04t-.233.13-.178.117q-.109.054-.205.054-.11 0-.11-.15.028-.11.397-.356-.205-.068-.56-.287t-.479-.355q-.341-.342-.45-.506-.055-.055-.192-.26h-.028l-.082.041q-.082.041-.136.041-.069 0-.123-.054-.028-.028-.028-.082 0-.069.137-.144t.123-.13q-.082-.205-.137-.478-.232-.479-.232-1.368v-.423q0-.082-.082-.288l-.027-.054q0-.041.027-.069t.075-.068.062-.055q.054-.054.054-.109v-.11q0-.232.055-.396 0-.068.089-.178t.178-.177.102-.041q0-.014-.014-.041t-.013-.041q0-.123.17-.274t.336-.26.136-.136q-.027-.055-.027-.11 0-.095.164-.184t.178-.103q.26-.41.465-.588.164-.164.45-.164.124 0 .179.028.068.04.123.102t.095.062q.028 0 .137-.055.027-.014.082-.055t.082-.054q.123-.082.287-.082.178 0 .219.082.424-.287.56-.301.069-.014.445-.055t.54-.15q.246-.192.424-.219.04-.014.13-.062t.143-.047h.055q.055.027.11.027.013 0 .033-.014t.035-.034.04-.048.069-.054q.178-.137.328-.137.055.014.144.048t.17.034q.028-.11.137-.328.178-.41.479-.451.11-.014.3-.164t.342-.15q-.054-.056-.054-.11t.054-.11q-.136-.027-.136-.136 0-.082.177-.26t.178-.191q-.164.109-.328.109-.11 0-.11-.082t.028-.137q.014-.082.273-.342-.082-.082-.109-.136-.096-.069-.198-.178t-.185-.164-.205-.055q-.137 0-.219.027-.082.014-.143-.02t-.116-.103-.082-.095q-.055 0-.144-.041t-.144-.041q-.068 0-.205-.055t-.205-.055h-.054q-.014 0-.055.014t-.068.014l-.11-.055q-.328.027-.642.164-.014 0-.062.014t-.075.013q-.055 0-.11-.054-.04-.082-.109-.082-.027 0-.096.027t-.109.027q.014.014.089.048t.116.055.11.061.102.082.062.096.027.11q.014.04.027.143t.028.157q.164.383.164.752 0 .342-.137.479.027-.014.15-.09t.164-.074q.028-.028.082-.028.082 0 .082.11t-.082.191q-.287.15-.369.205.028.028.028.082 0 .082-.158.157t-.17.09q-.055.027-.055.15v.136q0 .15-.123.247-.15.095-.301.136 0 .164-.11.233l-.177.013q-.192.014-.274.014h-.054q-.055-.027-.137-.027-.15 0-.451.246-.014 0-.041.013t-.041.014q-.069 0-.11-.082-.177.178-.314.178-.027 0-.068-.048t-.069-.048q0 .027-.027.027-.068.069-.11.069-.081 0-.122-.096-.028-.027-.028-.082l.028-.027q0-.041-.083-.082h.028l-.192-.082q-.013 0-.396-.233-.547-.26-.916-.888-.055-.082-.178-.082-.055 0-.164.027t-.164.027q-.137 0-.205-.11l-.027-.054q0-.054.047-.102t.144-.103l.096-.055q.027-.027.164-.45-.055-.22-.055-.561 0-.246.027-.328 0-.014-.013-.144t-.014-.226q0-.314.055-.533.137-.314.369-.465.11-.15.219-.232 0-.178.11-.246.054-.055.266-.171t.294-.226q.218-.328.984-.587.574-.247.725-.247.205 0 .287.164.04-.123.3-.293t.397-.158q.137 0 .417-.054t.444-.055q.082 0 .137.027t.096.028q.013 0 .048-.014t.061-.014q.055-.027.192-.027.068.027.26.082.273-.164.532-.164.165 0 .274.11.123-.083.287-.083.027 0 .082.014t.082.014h.027q.041 0 .11-.028t.11-.027h.15q.492 0 .724.137.492.164.56.164.384.082.452.123h.082q.082 0 .26.082t.273.082q.451.096.56.246.096.014.336.184t.28.24q.11.054.287.205t.246.246q.274.137.643.752.013.014.034.007t.075-.02.082-.014q.123 0 .164.082 0 .013.014.027t.014.027q0 .041-.165.205l-.027.028q0 .027.11.246.027-.028.082-.028t.116.048.061.09q0 .054-.054.081-.028.055-.076.069t-.047.054v.055q.027.082.054.253t.028.184q.109-.054.15-.054.164 0 .164.287 0 .082-.027.137-.069.355-.246.533 0 .04-.02.13t-.021.143.068.397q.082-.082.191-.082.164 0 .164.164 0 .013-.013.054t-.014.055q-.055.178-.273.397 0 .04.013.13t.014.13.014.143.013.157q0 .328-.082.533.123-.082.164-.082.11 0 .11.164 0 .233-.164.397t-.164.3q0 .014.013.124t.014.191q.055.219.055.397v.246l.027.027q.055 0 .11.082.027.027.027.082 0 .082-.062.212t-.075.157v.274q0 .15.055.205.109.109.109.273 0 .055-.055.11.055.054.055.123 0 .109-.11.218-.054.055-.068.09t-.02.081-.02.103q-.028.082-.028.232 0 .178.11.56.15-.054.45-.109 0-.013.014-.13t.014-.13q.013-.027.02-.143t.034-.157q.014-.11.021-.458t.034-.5q-.04-.136-.055-.136t-.04.014-.042.013h-.068q-.11-.04-.11-.109 0-.096.11-.205.15-.082.15-.11l-.013-.054q-.014-.069-.014-.137v-.027q0-.123.123-.246t.233-.123q.369 0 .533.082.055-.055.191-.055.178 0 .233.027.082-.027.369-.027.314 0 .52.082.26.123.26.615v.506q0 .014.013.089t.013.089q.096 0 .137.082zm-.889 1.709l-.478.355.478-.355q-1.859 1.394-2.72 2.146.3-.164.888-.512t.875-.527q.041-.04.28-.164t.431-.253.192-.198v-.055q0-.054.027-.184t.027-.198v-.055zm-2.132 2.119l.054-.027-.054.027q.191-.068.341-.191-.26.136-.341.191zm1.873-3.445h.027l-.068.027h-.014l.055-.027.123-.055q.123-.041.212-.089t.089-.075q-.055-.11-.055-.246-.027-.082-.027-.287v-.246q-.042.04-.117.123t-.116.123q.178 0 .178.11 0 .19-.684.874.069-.055.219-.137t.178-.095zm-.67-.11l-.028-.027.028.055v-.082q0-.096.15-.294t.356-.424.218-.24q-.136.028-.369.22t-.437.15v.164q0 .123-.028.383t-.027.382v.11q.123-.164.273-.315-.095 0-.136-.082zm.219-1.011h-.192q-.164 0-.164.095.027.055.082.055.068 0 .164-.068zm-1.176 2.884h.123-.123q-.082 0-.192-.054t-.164-.055l-.11.055q-.423.328-.792.588-1.326 1.08-1.367 1.12h.054q.082 0 .247.083.232-.178.396-.274l.424-.294.424-.294q1.025-.724 1.668-1.148.82-.547 1.12-.67l.076-.027q.034-.013.061-.028t.048-.034.034-.027.028-.041.02-.048.02-.062.028-.075q0-.04.014-.123t.014-.123q-.124.082-.404.287t-.492.335-.417.185q-.027.205-.28.465t-.458.26zm-2.967 1.545l-.027-.027.027.027q.082.014.273-.143t.397-.349.26-.232q1.162-.916 1.203-.957-.26.164-1.073.731t-1.279.84q.028.042.11.056t.109.054zm2.105-2.01l-.027.028.027-.027q-.15.15-.362.287t-.526.294-.424.225q-.861.52-1.299.93.11.055.752-.397t1.244-.909.615-.43zm-.218-.792q-.041-.082-.041-.11-1.9 1.258-2.912 2.27.027.027.095.027.192 0 1.203-.67.233-.123.643-.376t.478-.294q.041-.027.185-.116t.267-.144.218-.054q-.013-.082-.075-.267t-.061-.266zm-8.778 2.994q.11.013.308-.103t.424-.287.28-.198q.479-.287.902-.588-.314.178-.977.56t-.991.561zm-2.228-5.51l.055-.027q-.028 0-.055.027 0 .027.027.027t.082-.061.123-.13l.096-.096q-.082.041-.191.137t-.137.123zm-.56 1.34q-.178.123-.233.287v.082q0 .068-.082.478.11-.15.28-.307t.28-.246.356-.26.314-.226q.137-.109 1.791-1.38-.218.136-.827.499t-1.032.608-.848.465zm-.233 1.435q.11-.054.451-.26l3.363-1.927q.041-.028.13-.103t.164-.123.13-.034q.602-.273.752-.56.082-.192.219-.192.04 0 .116.014t.116.013q.082 0 .11-.027l.212-.123.211-.123q.534-.3 1.135-.65t1.32-.772 1.127-.656q1.231-.697 1.614-.916l.136-.069.165-.082.136-.082.116-.116.035-.13q0-.013-.014-.054t-.014-.055q-.11.055-.164.11-1.203.683-3.39 1.948t-2.94 1.688q-3.008 1.75-3.61 2.078-.19.11-.567.335t-.58.335q-.37.246-.48.246-.026-.027-.054-.027.055.164.055.314zm9.72-3.172l-.218.137.219-.137q-.944.52-1.012.561-.082.041-.253.144t-.253.143q.027.027.027.164v.082q.287-.205.841-.608t.841-.595q-.027.014-.096.055t-.095.054zm-.874.082l.15-.109q-.041.027-.15.11.341-.178 1.736-1.094-1.695 1.066-1.736 1.093zm-.52 1.627v.028-.028q0 .055-.068.192.273-.233 1.12-.861-.163.068-.464.211t-.451.212q-.041.028-.082.048t-.048.028-.007.034v.136zm-2.639-1.449l.014-.013q.068-.028.068-.041 0-.041.055-.096-.137.068-.137.123v.027zm.397-.287q.273-.055.355-.191-.082.027-.205.102t-.15.09zm1.367-.697l.11-.082-.11.082q1.107-.643 1.818-1.149-.423.26-1.305.78t-1.32.765q.15 0 .39-.205t.417-.191zm-2.133 1.476l-.054.041q.013 0 .054-.04zm-.697.479h-.027.027zm-.943 1.627l-.123.11.123-.11q-.561.56-1.682 1.463.328-.205.923-.595t.69-.444q.26-.15.26-.233 0-.027-.014-.061t-.048-.096-.047-.116zm.752-.082q.19-.055.218-.055.11.041.11.137 0 .137-.11.191.451.219.56.315l.09.04q.062.028.089.042.054-.028.109-.028.082 0 .11.028.04-.014.13-.096t.17-.096q.137-.054.424-.335t.533-.28q.178 0 .274-.075t.177-.205.164-.198q.137-.301.137-.698v-.314q-.164.04-.164-.11 0-.109.11-.164.027 0 .027-.054 0-.014-.014-.075t-.014-.076q-.027-.164-.027-.615-.424.356-.615.424-.069.027-.267.13t-.348.15-.274.034q-.26 0-.451.137-.068.041-.212.137t-.212.137q-.055.068-.17.15t-.267.164-.205.11q-.342.232-.342.45 0 .11.116.35t.144.348zm-.028.889l-.027.068.027-.027v-.041q-.164.273-.43.58t-.452.486-.58.533-.507.451q1.381-.765 2.803-1.627-.11-.109-.424-.232t-.41-.191zm-.82 2.392q.137 0 .314-.048t.267-.082.328-.143.267-.123q1.011-.52 2.16-1.258.943-.574 3.226-2.188.807-.615 1.368-1.011.218-.178.28-.274t.061-.287v-.191q-1.818 1.23-2.966 1.873-.506.287-.793.396-.028.014-.137.027t-.137.028q.027.055.027.191 0 .26-.26.397-.122.068-.355.11-.013.026-.177.19-.082.055-.253.233t-.329.287-.334.11q-.083 0-.165-.042-.232.26-.608.54t-.567.404-.773.45-.608.343q.068.068.164.068zm8.271-4.21l-.095.054.095-.055q-.3.164-1.093.684 1.093-.547 1.093-.684zm0-.329q0-.014-.068.041t-.11.096q.178-.096.178-.137zm-.054-1.736q-.041-.055-.95.547t-1.101.765l-.5.376q-.335.253-.512.376-.027.027-.205.15t-.287.233-.15.205q.52-.219 1.873-1.094.492-.287 1.298-.806.014-.014.09-.055t.15-.096.157-.11.13-.095.034-.068q-.027-.055-.027-.246v-.082zm-.069-.342l-.054.055q.054 0 .054-.055zm-1.504.588q.752-.465.985-.588.054-.027.15-.082t.13-.069.089-.061.075-.089.055-.102.048-.158q-1.285.957-1.532 1.149zm1.627-1.846v-.055l-.054.055h.054zm-3.595 1.395v-.028.069-.041q-.041-.069.136-.22t.486-.34.594-.35.568-.3.294-.158q.095-.04 1.258-.724.232-.11.232-.287 0-.041-.027-.164t-.041-.192q-.971.793-2.79 1.873-.601.356-.847.533-.11.069-.11.137 0 .028.062.116t.075.171q.028.137.028.41 0 .288.027.424.014-.013.075-.04t.075-.042q-.054-.054-.054-.11 0-.081.082-.184t.232-.218.3-.226.35-.226.328-.191.28-.157l.15-.082q.205-.137.65-.424t.65-.424q.04-.027.156-.096t.185-.116.13-.13.061-.164q-1.011.56-1.832 1.04l-.465.3q-.464.287-.854.472t-.444.089zm3.336-4.758l-.028-.055q-.082.055-.697.506t-.93.697q.15-.095.458-.28t.472-.28q.096-.055.294-.164t.294-.164l.137-.11v-.15zm-.356-.615l-.096.054q.028-.027.069-.027.054 0 .054.027 0-.013-.013-.027t-.014-.027zm-1.353-1.149q-.028-.027-.11-.027-.04 0-.068.02t-.075.096-.076.116q-.109.11-.32.349t-.322.348q-.123.178-.397.513t-.396.5q1.08-.643 2.53-1.354-.151-.15-.766-.56zm-1.71 2.475h.028-.027q.027-.014.088-.062t.09-.061q-.178.082-.178.123zm.028 1.367q.027-.068.615-.451-.342.136-.41.136-.014 0-.055-.013t-.054-.014q0 .014-.035.15t-.061.192zm.287-1.23l.11-.083-.11.082q.246-.15.916-.615-.205.123-.574.376t-.574.376q.177-.123.232-.137zm.219-2.967h.027-.027q-.069 0-.171-.041t-.13-.041q-.205.205-.37.41-.122.136-.512.526t-.58.622q.026 0 .06.014t.049.014q.068 0 .13-.028t.143-.089.15-.102q.082-.069.267-.198t.267-.199q.916-.629 1.203-.779-.22-.11-.506-.11zm-4.813-.178q-.095 0-.136.04t-.082.13-.096.144q-.233.233-.725.56.178-.095 1.381-.82h-.096q-.136 0-.246-.054zm.22 3.363l-.028-.027q-.041 0-.103.061t-.137.15-.088.103q-.069.082-.452.465-.123.123-.376.397t-.376.396q.165-.082.568-.328t.636-.37q.136-.081.246-.368t.11-.479zm-3.583.055l.287-.192q-.055 0-.287.192 1.518-.848 1.627-.916l.383-.226q.315-.185.314-.198-.054-.11-.054-.191 0-.192.164-.315-1.887 1.367-2.434 1.846zm2.912-.943q-.082.082-.082.109.082-.082.082-.11-.287.315-.889.93t-.902.916q.3-.191.916-.547t.93-.547q.506-.205.478-.341-.054-.15-.116-.205t-.191-.096-.226-.11zm-.383-.958v-.027q-.013 0-.068.055.014 0 .034-.014t.034-.014zm-.423-.027l.082-.055-.397.274q.096-.055.315-.219.177-.137.553-.424t.568-.423q-.329.205-.992.608t-.977.608q-.027.014-.246.164t-.445.274-.335.123q-.123 0-.123-.123 0-.082.076-.171t.198-.185.15-.123q.301-.232.896-.629l.677-.45q-.11.068-.322.218t-.396.253-.376.143q-.082.069-.28.178t-.35.212-.245.226q-.11.136-.11.355 0 .205-.027.342v.424q.93-.78 2.106-1.6zm.67-1.463h-.028.027l-.082-.082q0 .096-.054.15zm-2.667 3.979l.178-.055q-.014 0-.178.055.206.246.397.533 1.34-1.34 1.982-2.01-1.75 1.135-2.379 1.477zm1.012.902q.123 0 .397.137.164-.205.382-.424.329-.328 1.012-1.066-.191.109-.909.546t-1.128.67q.027.014.116.076t.13.061zm2.488-3.527l.028-.055-.028.055q.178-.287.506-.287.096 0 .308.027t.308.027q.246 0 .396-.109.97-.697 1.846-1.203-.164.055-.301.055-.123 0-.205-.082-.164.109-.383.109h-.26q-.396 0-.615.027-.314 0-.451.028-.178.068-.533.314-.233.15-.67.465t-.67.478q.123-.082.314-.082.315 0 .41.233zm1.97 0q.232 0 .478.164.04.014.089-.007t.095-.068.075-.09l.069-.102.055-.075q.779-.78 1.148-1.203-.068-.014-.116-.034t-.075-.02q-.055 0-.11.027l-.082.054q-.096.055-.15.069-.11.068-.322.205t-.32.205q-.26.164-1.177.793.328.082.342.082zm1.312.506q.082.054.232.232t.219.232q.492-.71 1.476-1.845-.26.15-1.114.738t-.813.643zm.164 2.2q-.028.028-.055.028l.055.028v-.055zm-1.983 1.997l.028.055-.028-.055q-.095.014-.17.068t-.171.15-.192.165q-.11.082-.349.239t-.348.24q-.219.177-.69.512t-.691.499q-1.45 1.066-2.146 1.654.013-.013.054-.04t.055-.042q1.066-.615 3.179-1.839t3.178-1.839l3.418-1.955q.082-.054.26-.157t.335-.198.294-.178q.137-.068.137-.246 0-.04-.082-.369-1.286.738-2.967 1.709l-.294.17-.294.172q-.096.056-.178.232t-.178.26q-.574.342-.656.342-.068 0-.11.075t-.068.184-.068.165q-.11.109-.246.109h-.15q-.055 0-.09.014t-.088.04-.123.055q-.014 0-.055.014t-.055.014q-.273 0-.45-.22zm-.806.082h.027-.205q-.082 0-.191.082.109 0 .109.11v.054q.082-.041.253-.137t.253-.136l-.082-.028q-.014 0-.048.028t-.116.027zm-2.584.725l-.028.054.028-.027v-.027q-.397.341-.479.45-.123.206-.3.343-.342.341-.616.546-.04.041-.246.192t-.349.294-.143.253q1.353-.848 1.736-1.121.41-.247 1.142-.752t1.046-.711h-.137q-.082 0-.219.082-.082.04-.212.218t-.212.233q-.136.137-.341.137-.164 0-.274-.11-.055.055-.137.055-.15 0-.26-.11zM16.6 43.986q0 .014.246-.143t.635-.417.588-.39.376-.253q.22-.123.595-.376t.472-.321q.287-.191.41-.506-1.436.766-2.844 1.463-.355.178-.683.3.027.096.109.315t.096.328zm.41.698q.15.095.177.095t.048-.02l.069-.069.102-.088q.192-.137.547-.431t.547-.43q.465-.37 1.012-.876l.136-.123q.15-.137.233-.225t.068-.13q-.656.342-1.86 1.08t-1.407.861q.287.287.328.356zm1.463.847h-.028.028q.068 0 .232-.143t.335-.335.212-.219q.11-.11.349-.355t.348-.356q.479-.547.56-.697-.109-.055-.642.342-.178.095-.485.294t-.376.239q-.643.424-1.367.861.341.137.52.315.204 0 .314.054zm3.691.56h.082q-.04-.081-.082-.081l-.055.054zm2.885-1.38q.642-.533.724-.615-.328.164-.806.45zm1.039 1.545v.027-.027zm1.545-.397q.027 0 .027-.027h-.055l.028.027q.055-.027.219-.027.068 0 .287-.219l.417-.335.417-.335q1.052-.861 1.927-1.49-.56.274-1.148.663t-1.306.923-1.073.766q.014.013.116.02t.144.034zm21.42-11.648v.027-.054.027q-.027.123-.191.287-.123.082-.123.11l.013.04q.014.055.014.123.014.055.027.192t.028.205q.04.164.04.342 0 .3-.068.437-.04.082-.061.308t-.075.307q-.028.069-.055.199t-.055.198q-.04.055-.075.089t-.061.04-.042.042-.013.089v.054q.013.11-.069.212t-.273.24l-.191.136q-.424.356-.698.328-.095 0-.26-.109-.136.096-.273.137-.04.027-.178.13t-.218.13h-.055q-.041 0-.089-.041t-.075-.041h-.027q-.192.19-.315.19-.014 0-.04.015t-.042.013q-.11 0-.11-.136 0-.096.083-.137.04-.014.246-.15-.041-.014-.246-.035t-.287-.102q-.479-.205-.67-.397-.15-.15-.274-.465-.068-.068-.11-.068t-.15.068-.164.082q-.095.014-.13-.047t-.034-.185q0-.164.028-.219.027-.04.102-.095t.116-.11.028-.11q-.055-.109-.055-.218-.11-.383-.11-.588v-.137q-.327.22-.697.807-.054.096-.13.39t-.157.39q.137 0 .137.095 0 .055-.048.15t-.11.185-.06.103v.095q0 .041-.014.137t-.014.137v.11q0 .232-.055.45-.095.492-.11.506.11-.055.302-.055.177 0 .177.11 0 .068-.068.137-.055.082-.143.15t-.137.137-.048.191q.082.205.082.506 0 .26-.082.424v.11q0 .45-.055.669.028.082.028.342 0 .219-.028.3.028.083.028.288v.3q0 .233.027.342.055-.027.164-.027.191 0 .191.137 0 .11-.054.164.095-.014.307.048t.28.061q.096 0 .274.027t.26.028q.04 0 .11-.014t.095-.014q.11-.054.355-.054.041 0 .123.013t.11.014q.314.11.355.424.055.273.055.834 0 .383-.055 1.121.328-.164.37-.164.081 0 .081.082v.082q0 .041-.034.068t-.089.062-.068.048q-.11.054-.308.205t-.307.205q-.164.055-.424.055-.232 0-.287-.055-.027.014-.137.089t-.205.116-.15.027q-.096-.027-.123-.109t-.137-.096q-.055-.027-.137-.027-.054 0-.11.027-.027 0-.102.014t-.102.014q-.11 0-.315-.028t-.3-.027q-.096.096-.165.096-.095 0-.19-.096-.042.014-.13.075t-.103.075q-.123.082-.383.082-.15 0-.205-.027-.096-.055-.192-.075t-.225-.02-.198-.014q-.096 0-.28-.035t-.281-.034q-.11 0-.342-.027t-.328-.027q-.068 0-.157.04t-.178.11-.116.082q-.123.082-.192.082-.054 0-.136-.096t-.137-.136q-.041-.014-.185.027t-.211.041q-.041 0-.11-.068h-.027q-.055 0-.205.061t-.335.15-.226.103h-.082q-.246 0-.246-.191 0-.069.055-.178h-.055q-.055 0-.17.027t-.172.028h-.054q-.041-.014-.096-.041t-.096-.041h-.11q-.341 0-.478-.247-.082-.164-.082-.642v-.11q-.095-.19-.095-.505 0-.178.04-.26 0-.027.014-.082t.014-.082v-.028q-.123 0-.123-.082 0-.136.15-.205 0-.52.274-.642.054-.028.191-.028.096 0 .328.041t.328.041q.069 0 .212-.04t.199-.042q.123 0 .205.083.082-.083.3-.247l.082-.054q-.027 0-.027-.028l.055-.109q.013-.027.04-.144t.042-.143q0-.068.054-.157t.069-.117v-.054q0-.041-.014-.13t-.014-.13q-.095-.246-.095-.506 0-.219.068-.608t.082-.513v-.11q0-.136-.027-.423t-.028-.41v-.137q-.095-.383-.095-.56 0-.124.04-.206v-.054q0-.11.042-.328t.04-.315v-.137q-.081-.205-.081-.588-.069-.273-.069-.396 0-.191.069-.397-.041-.246-.041-.464v-.205q-.055-.22-.055-.356-.11.014-.164-.02t-.103-.096-.088-.089q-.438.26-.67.26-.15 0-.205-.055-.096-.068-.322-.082t-.294-.027q-.027.027-.082.027-.109 0-.191-.157t-.082-.294q0-.082.027-.11 0-.013-.013-.068t-.014-.082q0-.123.082-.383t.082-.369-.027-.164q-.287.192-.397.192-.027 0-.082-.055-.027-.028-.027-.082 0-.096.273-.37.219-.26.233-.41-.028-.109-.028-.26t.082-.245.15-.123.274-.076.274-.061q.478-.164 1.066-.164.26 0 .37.027.026 0 .184.02t.266.049.164.068h.534q.218-.055.437-.055.15 0 .26.055.383-.055.588-.055.04 0 .444.041t.622.041q.055 0 .328-.04t.424-.042q.479 0 .506.37.055.109.055.382 0 .055-.014.164t-.014.123q0 .028.014.096t.014.096q0 .123-.055.341.273-.136.383-.136h.027q-.027-.028-.027-.123 0-.178.287-.56.082-.097.184-.39t.24-.417q.218-.165.437-.165.137 0 .26.082.027.028.055.069t.04.055.042.013q.054 0 .082-.027.164-.082.232-.082t.13.055.116.054q.192-.068.451-.273.055-.028.192-.028.246 0 .369.082.123 0 .41.069t.37.123q.136 0 .546.266t.492.404q.096.04.356.478.013.028.123.219t.137.287q.04.137.109.137.055 0 .082-.027.11-.055.232-.055.164 0 .164.137 0 .013-.013.047t-.014.062zm-.984.533q-.11 0-.11.055.014-.014.055-.028t.055-.027zm-.533-1.285q-.069-.137-.22-.137-.04 0-.368.164-.233.123-.677.397t-.663.396q-.301.15-.533.383-.055.315-.192.397 0 .355-.287.779.424-.26 1.285-.745t1.272-.732q.341-.205.41-.232.027-.014.061-.007t.11.02.116.014q.082 0 .082-.054 0-.028-.027-.055-.041-.068-.185-.274t-.184-.314zm-5.456 4.73q0 .041-.697.506l.164-.082.24-.13.198-.143.095-.15zm-.082 1.518l-.396.219.396-.219q-.834.479-2.078 1.23-.205.124-.608.376t-.595.376q-.04.028-.11.069t-.088.054-.055.042-.04.054-.008.069q0 .013.014.061t.014.075q.177-.123.964-.622t1.21-.8q.232-.123.827-.512t.553-.472zm-.027 1.094v-.055l-.082.082q.027-.027.082-.027zm.055-.424l-.11.055.11-.055q-.11.068-.335.198t-.335.198q.656-.328.67-.396zm-5.824-5.879q.341-.451.916-1.285-.602.383-.67.41-.069.041-.096.062t-.048.047-.027.041-.02.062-.028.102v.11q0 .082-.014.232t-.013.219zm.164-1.463h-.082q-.028 0-.055.123.014-.013.055-.04t.068-.049.014-.034zm1.763 1.942q.082.054.397-.123t.704-.472.417-.308l.677-.478q.445-.314.663-.465-.192-.014-.376.075t-.486.315-.341.252q-.479.329-1.71 1.149zm3.692-1.873q-.055 0-.137.068t-.191.164-.137.123q.04-.041.287-.219zm-.055 1.695l-.41.342q.41-.315.41-.342-1.955 1.558-2.434 1.969 1.23-.834 2.748-1.71-.205 0-.314-.26zm-2.912 2.666q.246-.014.43-.137t.185-.205q0-.027-.027-.027-.123 0-.588.369.205-.028.417-.089t.465-.185.39-.198.423-.246.356-.212q1.025-.629 1.449-.916.67-.41.765-.848-2.994 1.668-4.265 2.694zm-.383.478v.028-.028q.027.055.027.137.123-.068.363-.212t.362-.212q-.041.014-.253.028t-.355.054-.144.15v.055zm5.373-4.197l.055-.027q-.028 0-.055.027-.123.082-.376.246t-.376.246q.233-.095 1.094-.67l-.171.09-.17.088zm.78.3l.054-.054q-.055.028-.055.055.069-.055.226-.15t.226-.15q-.123.054-.363.177t-.362.178h.027q.041 0 .123-.028t.123-.027zm-1.819.589l.027-.028-.027.028.11-.055h-.028q-.027 0-.082.055zm-2.324.847l.027-.027q.014 0-.048.055t-.13.11l-.068.054q.055-.055.219-.192.178-.123.533-.423l-.889.52q-.657.383-1.011.6-.014.014-.199.09t-.3.15-.171.144q-.082.04-.082.423 0 .082.013.22t.014.15q.137-.288.807-.82.246-.22 1.285-1.054zm-2.065.67l.028-.054q-.028.027-.028.054.643-.67 2.037-1.79-1.38.82-1.845 1.025l-.09.04-.095.042q-.034.014-.068.048t-.034.075q.095.232.095.56zm2.57 1.559l-.45.287.505-.314q-.027 0-.054.027-.916.574-2.037 1.217-.123.082-.506.273-.028.028-.028.11 0 .04.014.15t.014.137q.164-.11 1.517-.998t1.955-1.477l-.464.294-.465.294zm-.642.096l.192-.123q-.055.04-.192.123.055-.041.403-.26t.554-.328q-.15.068-.314.17t-.349.226-.294.192zm-1.818 2.652l.355-.246q-.013.014-.027.02t-.068.041-.096.062l-.082.055-.069.054-.013.014q1.135-.807 2.68-1.955-1.463.902-2.174 1.285-.356.178-.479.219-.055.054-.055.232 0 .041.014.116t.014.103zm-.082.875h.027-.027v.11q2.597-2.092 3.295-2.667-.383.26-1.17.82t-1.182.835q-.3.232-.697.423-.096.055-.137.117t-.061.177-.048.185zm3.718-4.033q0 .04-.211.198t-.486.349l-.287.205q-.314.218-.936.629t-.937.629q.56-.288 1.572-.916l.294-.185.335-.212q.151-.096.287-.164.22-.137.287-.226t.082-.307zm-.054-.643l.027-.027h-.055q0 .027.028.027.11-.068.205-.198t.137-.17q.027-.056.027-.138t.027-.109q-1.668.93-2.447 1.422-.314.178-1.203.724-.027.014-.171.11t-.212.123q0 .11-.027.164 0 .041-.014.137t-.014.136q1.655-1.285 2.735-1.873l.212-.109q.185-.096.266-.13t.226-.068.253-.02zm4.484-3.76q-.04 0-.205.13t-.362.294-.226.192q.192-.082.52-.294t.437-.267q-.11-.055-.164-.055zm-.615-.191l.027.055q0-.028-.027-.055-.055 0-.096.041t-.082.041h-.027q-.028 0-.075-.014t-.062-.013l-.219.054q.055.055-.034.171t-.266.26-.363.267l-.348.232-.192.137q1.053-.547 2.092-1.067-.246 0-.328-.109zm-1.176.055v.027-.027q-.014.027-.123.136.26-.136.342-.191-.11 0-.164-.11-.055 0-.055.055v.11zm-5.687 3.076q.93-.506 1.845-1.067.739-.41.78-.437.095-.055.15-.383t.055-.52q-.93.753-2.83 2.407zm-1.067-2.83h-.027.027q-.11 0-.205-.041t-.11-.041q-.068 0-.136.11-.068.095-.205.28t-.205.28l-.342.465-.342.464q.164-.013.376-.143t.458-.328.342-.253q.082-.055.513-.335t.663-.404h-.219q-.11 0-.164-.054-.055.027-.15.027-.055 0-.144-.014t-.13-.013zM36.12 44.574q.055-.027.055-.054-.055.027-.055.054.083-.054.253-.15t.253-.15q-.068.027-.164.047t-.15.028-.11.061-.082.164zm.028 1.067h.027-.027q.273.054.3.054.028-.054.103-.164t.103-.164q.15-.219.437-.608t.315-.43q-.15.108-.513.314t-.39.218q-.164.164-.355.164h-.055q0 .233.055.616zm5.988-1.983l-.191.11.191-.11q-1.312.807-1.49.944.04-.028.444-.253t.732-.431.314-.26zm.479.301v.027q.027 0 .027-.027h-.027q-.192.068-.404.212t-.458.335-.369.273q-.191.11-.554.349t-.54.349q1.928-1.108 2.516-1.463-.137 0-.191-.055zm-4.198 1.764q.137.013.356-.117t.465-.328.328-.253q-.205.123-.636.363t-.636.362q.014 0 .062-.014t.061-.013zm3.268-2.543l-.041.15-.014.014q.028-.028.055-.164 0-.055-.055-.055-.027 0-.13.041t-.116.041q-.383.15-1.148.67-.301.205-1.203.848t-1.409.97q.15.028.335-.048t.417-.232.315-.198q.205-.123.629-.363t.629-.362q.724-.451 1.203-.78.492-.34.533-.532zm-4.54 3.295l-.026.04.068-.04h-.041zm3.788-.643q.11-.055.342-.055h.054q.028 0 .062.014t.048.014q.055 0 .082-.02t.089-.09.102-.11q1.012-1.175 1.04-1.202-.383.232-1.19.683t-1.19.684q.069.041.274.048t.287.034zm2.57-.11h.028-.055.027q.041 0 .11.014t.095.014q.22 0 .329-.191.082-.192.396-.752-.984.724-1.23.888.054.028.109.028h.191zm1.149-.779l-.028.082q.028-.054.028-.082-.205.41-.41.78.068-.014.136.006t.082.021q.055 0 .137-.082 0-.11.027-.164v-.164q0-.287.028-.397zm-.998-.793l.027.041q0-.04-.027-.04-.082.04-.123.04-.028 0-.082-.02t-.082-.02q-.041 0-.164.122-.22.22-.424.465-.451.56-.889 1.04.027-.028.137-.028h.273q.082-.082.26-.082.137 0 .219-.027.123-.082.642-.438t.793-.574q.014 0 .09-.048t.108-.068.09-.069.081-.095.041-.103q0-.055-.054-.055-.028 0-.082.014t-.082.014h-.028q-.04 0-.15.013t-.191.014q-.247 0-.383-.096zm-1.914-.587l.082-.083-.082.083q.027-.028.089-.062t.109-.055.082-.068.034-.089q-.027-.082-.027-.314-.082-.123-.082-.465v-.082q.027-.055.027-.178 0-.068-.014-.198t-.013-.185v-.096q0-.027-.014-.082t-.014-.082q0-.082.028-.266t.027-.267q-.37.11-.8.335t-.683.397-.76.526-.642.451q-.04.028-.225.144t-.287.184-.212.185-.123.212q0 .027-.09.191t-.13.205q-.04.137-.163.315t-.301.383-.232.287q-.534.765-.56.806.19.041.443-.048t.41-.205.431-.335l.342-.273q.3-.219.916-.656t.93-.643q.123-.068.369-.219t.444-.26.39-.163q.082-.028.191-.028.315 0 .315.287 0 .15-.205.41zm-1.532-3.104l.301-.191-.3.191q1.066-.656 1.394-.834.027-.014.096-.055t.088-.054.055-.041.048-.069.027-.095v-.301q-1.681 1.353-2.105 1.709.15-.11.396-.26zm4.334-4.225q.014.041.13-.054t.185-.164q-.014 0-.075.027t-.11.048-.089.055-.04.061v.027zm.479.957q.04.014.096-.02t.13-.096.13-.123.13-.137l.102-.102q.738-.656.78-.697-1.327.683-1.614.806.013.028.095.185t.15.184zm.724.329v-.028.028h.37q.027 0 .082.013t.082.014q.095-.096.218-.137.11-.055.22-.15t.232-.267.184-.253.198-.314.15-.246l-.286.232q-.218.178-.322.26t-.314.232-.355.24-.335.17-.37.123zm2.434-2.434q0-.055-.027-.082-.93.629-1.395 1.066-.205.178-.608.534t-.622.546q.478-.164 1.422-.888.027-.028.191-.171t.287-.253.274-.198.232-.076q.11 0 .11.137 0 .123-.13.362t-.28.438-.302.39l-.15.205q.068-.041.212-.048t.226-.062q.068-.04.102-.068t.062-.062.034-.061.027-.089l.034-.102.069-.103.068-.103q.014-.054.027-.184t.028-.171q.136-.37.136-.656 0-.041-.013-.144t-.014-.157zm14.926 7.67v.137q0 .205-.232 1.093.11.041.11.11 0 .11-.083.15-.137.096-.219.328-.082.246-.191.287.027.028.027.11t-.054.11q.027.026.027.081 0 .15-.643.479-.054.027-.225.123t-.267.15-.198.164-.13.233q-.055.396-.3.45-.151 0-.206-.054-.123.082-.3.082-.165 0-.288-.082-.027 0-.061.014t-.048.013l-.055.028q-.068 0-.11-.082-.122.082-.177.082-.014 0-.082-.028t-.137-.027q-.054.027-.164.027-.068 0-.218-.013t-.205-.014h-.055q-.027 0-.13-.014t-.144-.013h-.206q-.191 0-.273-.028-.014 0-.048.014t-.061.014q-.315 0-.479-.11-.068-.027-.13-.048t-.096-.034-.061-.013q-.082 0-.246.095-.274.137-.37.137h-.054q-.11-.041-.11-.11 0-.15.301-.45-.642-.274-.861-.561-.055-.055-.137-.055-.054 0-.177.062t-.192.075h-.054q-.192 0-.192-.164 0-.041.096-.144t.184-.184.076-.096q-.178-.178-.22-.342-.013-.04-.13-.157t-.129-.198v-.342q-.328-.629-.328-1.477 0-.341.082-.587.055-.164.061-.513t.048-.5q-.109-.491-.109-.929v-.137q-.027.028-.082.028-.137 0-.137-.137 0-.068.082-.11.164-.081.192-.109h-.11q-.287 0-.287-.15 0-.082.123-.164.028-.027.069-.055t.061-.048.048-.04.048-.049.034-.054.027-.069.014-.082q-.027-.109-.027-.437 0-.451.054-.56 0-.151-.054-.493t-.055-.492v-.164q-.055-.11-.055-.233 0-.136.055-.369t.055-.328v-.11q-.028 0-.096.014t-.096.014q-.123 0-.205-.082-.027-.027-.027-.082 0-.082.205-.287-.274-.055-.37-.055-.027 0-.081.014t-.082.014h-.11q-.04 0-.13.027t-.13.027q-.095 0-.369-.089t-.273-.13q-.273-.232-.273-.82 0-.068-.014-.218t-.014-.22v-.054q0-.04.028-.13t.027-.13v-.027q-.014 0-.068.014t-.083.013q-.246 0-.246-.109 0-.041.082-.082.014-.055.11-.116t.11-.075q.232-.11.259-.206-.055-.054-.055-.164 0-.191.192-.191h.054q.137-.287.342-.287.055 0 .089-.069t.075-.184.055-.144q.287-.588.697-.588.15 0 .315.124.04.027.075.068t.048.055.04.013q.028-.027.11-.054.027-.028.123-.028h.082q.055 0 .11-.027-.055-.11-.055-.178t.089-.164.102-.137q0-.082.178-.348t.273-.322q.014-.054.062-.17t.11-.247.074-.17q.041-.178.206-.397.054-.273.054-.478-.218.109-.314.109-.11 0-.11-.082 0-.041.137-.219.287-.328.315-.588-.055-.11-.055-.287 0-.26.137-.355.109-.11.478-.11h.192q.013.014.17.062t.199.075q.095.014.232-.02t.192-.035h.082q.082.028.246.028.177 0 .287-.055h.082q.219 0 .3.082.042 0 .13-.027t.13-.028q.123 0 .192.137.11.068.11.273.054.438.054.711v.383q0 .178.027.26.219-.11.233-.11h.027q.11 0 .11.11 0 .055-.055.11-.028.027-.076.06t-.061.049q-.123.123-.123.164v.15q0 .014.014.041t.013.041q0 .082-.055.267t-.054.266.027.11v.027q0 .041-.027.164t-.028.164v.602q0 .082-.013.26t-.014.26v.122q.014-.013.075-.061t.123-.082.117-.034q.068 0 .109.082.027.027.027.095 0 .11-.11.164.028.014.062.028t.048.02.028.007q.027 0 .054-.027.082-.055.315-.055.04 0 .102.041t.09.041q.013 0 .027-.014t.027-.013q.11-.055.164-.055.055-.027.178-.027.218 0 .382.054.137.028.342.028.164 0 .246-.028.028-.027.123-.027h.219q.041 0 .137-.027t.137-.028q.341 0 .478.247.055.054.055.26h.082q.137 0 .178.081.027.028.027.11 0 .11-.233.424.178-.041.178.109 0 .123-.123.246-.11.082-.11.178 0 .082-.027.164t-.027.246v.451q.027-.027.082-.027.178 0 .178.136 0 .069-.096.11l-.137.089q-.097.062-.136.089-.192.164-.67.273h-.26q-.068-.014-.178-.027t-.177-.028q-.055.028-.164.028-.083 0-.28-.055t-.281-.055q-.164.082-.451.082-.069 0-.205-.013t-.192-.014q-.04 0-.11.041t-.108.041q-.055 0-.11-.055-.15.055-.15.137 0 .096-.028.178.041.178.048.601t.062.63q.11-.055.178-.055.082 0 .082.109 0 .082-.076.226t-.157.198q.233 0 .233.136 0 .124-.233.356-.191.164-.191.37v.163q.027.11.027.37 0 .109-.014.334t-.013.335q0 .205.027.315.055-.028.11-.028.095 0 .095.082 0 .178-.178.356v.369q.055.11.055.424 0 .273-.027.383.027.218.027.71 0 .479.027.725.165.506.206.861.027.055.164.055.164 0 .362-.116t.198-.24q0-.204.11-.587 0-.11-.028-.356t-.027-.369q0-.04.014-.123t.013-.11q-.123.083-.219.083-.082 0-.082-.082 0-.096.082-.219.192-.219.22-.506-.083.082-.22.082-.109 0-.109-.11v-.054q.014-.055.089-.102t.17-.096l.124-.062v-.054q0-.22.116-.39t.335-.17q.11-.056.246-.056.028 0 .096.014t.082.014h.055q.04 0 .095.027t.096.027q.014 0 .041-.013t.041-.014q.082-.082.205-.082.055 0 .164.11.028-.028.082-.028t.082.027q.055 0 .185-.04t.184-.042q.178.014.28.212t.103.431v.11q.069.136.069.45.013.055.061.103t.048.103v.054q-.014.082-.11.226t-.095.157q0 .041-.014.157t-.014.158q.124.273.178.697zm-3.281 3.226l.027-.027zm1.039-.957l.219-.136-.219.136q.164-.095.485-.294t.5-.294q.095-.054.143-.13t.082-.177.075-.171q.028-.11.096-.349t.096-.348q-.479.424-1.443 1.299t-1.442 1.298q.137-.082.41-.232t.41-.232q.465-.37.588-.37zm.219-2.214v.027-.027.136q.11-.095.348-.28t.349-.28q.315-.246.397-.301l.109-.11q-.027 0-.027-.054 0-.068.027-.123-.178.11-.56.342t-.561.341q-.055.028-.055.164 0 .11-.027.165zm.027-1.928q.055-.028.171-.096t.17-.096h-.136q-.205 0-.205.137v.055zm1.258-.137l-.027.082q.027-.055.027-.082-.055.123-.725 1.121.028-.013.171-.089t.233-.123.184-.13.137-.164v-.082q0-.054.014-.17t.013-.172q0-.136-.027-.19zm-.027 1.586q0-.027-.178.103t-.376.294-.253.218q.041-.027.3-.143t.397-.233.11-.239zm.123.397q-.069.04-.199.109t-.198.11q.055-.028.164-.028.137 0 .164.055.069-.205.069-.246zm-2.16-1.983l.054.055zm1.845-.15l-.11.054.11-.054q-.984.424-1.066.738 0 .027.013.082t.014.082q0 .068-.014.226t-.013.225q0 .137.027.192.178-.233.629-.882t.41-.663zm-2.803 3.5q-.232-.123-.328-.533-.136.082-.471.273t-.52.308-.458.287-.499.335-.43.341l.615-.41.834-.547q.492-.287.67-.3.205-.041.205.054 0 .082-.117.233t-.26.3-.157.165q-.779.779-1.203 1.175.055.028.11.069l.027.013q.027-.027.137-.082l.348-.218.349-.22q.725-.519 1.436-.984-.041-.04-.144-.13t-.144-.13zm-2.378 1.572q.04 0 .177-.144t.28-.307.185-.192l.67-.67q-.096.055-1.668 1.094.068.028.178.11t.178.109zm-1.682-2.01q-.027-.096 1.066-.82-.11.055-.335.184t-.335.185q-.136.11-.369.219-.054.027-.054.082 0 .013.013.068t.014.082zm1.996-4.06l-.26.191.397-.314q-.028.04-.137.123-.219.177-.684.547t-.697.546l-.205.137q-.205.15-.321.267t-.116.184q.437-.205 2.078-1.244.205-.164.622-.451t.636-.438q.109-.068.109-.369 0-.082-.014-.205t-.013-.15q-.233.191-.698.588t-.697.588zm-2.023-.643l.341-.205-.341.205q.984-.547 2.132-1.326.793-.52 1.422-.97v-.028q0-.027-.027-.192t-.027-.177q-.329.246-.957.704t-.944.69q-.889.698-1.176.903l-.15.082q-.137.095-.205.17t-.068.144zm3.28-1.764l-.109.082q.055-.054.11-.082-.11.069-.335.22t-.335.218q.52-.287.67-.438zm-1.01-2.775l-.22.137.67-.424q-.11.096-.45.287-.958.615-1.573 1.04-.028.026-.185.108t-.266.158-.212.17-.09.178q.22-.232.493-.417t.766-.45.56-.308q.342-.22 1.04-.616t1.237-.731 1.004-.677q-.943.41-2.775 1.545zm-1.546.219l-.055.054q0-.027.055-.054l-.164.116-.164.116.164-.116q.11-.076.164-.116zm-1.107-1.572l-.233.177.479-.342q-.055.055-.246.164-.903.63-1.627 1.067-.082.04-.082.11 0 .081.068.143t.15.061.137-.027q.807-.588 1.6-1.148.588-.424 1.75-1.272t1.75-1.258q-.588.301-1.196.677t-1.409.902-1.141.745zm4.388-.137h.028-.028q-.054 0-.143.068t-.185.164-.123.11q-.273.218-.437.328.724-.451 1.203-.698h-.055q-.04 0-.137.014t-.123.014zm-.642.054l.027-.027-.027.027q.04-.027.123-.068t.123-.068l-.055-.028-.218.11q.027.027.027.054zm.082-1.845v-.11q-.834.602-.984.698.478-.246.765-.274.192 0 .192-.11 0-.122.027-.204zm-2.242 4.402l-.164.11q.109-.083.164-.11-.506.3-.834.533.191-.082.834-.533zm-.22 1.067q-.218.136-.484.314t-.322.205q.082-.055.356-.232t.45-.287zm-1.01.642l.027-.027-.028.027q.014-.014.041-.027t.041-.028q-.054 0-.082.055zm-.083-.451l.028-.055-.028.055q.041-.082.246-.37-.164 0-.218-.054-.028.137-.028.424zm.137.916q.11-.15.11-.164-.11.137-.11.164.123-.164.328-.335t.362-.273.424-.267.376-.232q.219-.124.636-.383t.622-.383q.014-.014.123-.068t.191-.11l.185-.123.157-.13.041-.102q-.273.136-.588.335t-.54.348-.588.404-.553.376q-.137.095-.431.294t-.43.293q-.055.028-.117.062t-.089.055-.061.048-.041.075-.007.116zm6.672-4.115l-.178.123q.041-.041.178-.123.013 0 .095-.048t.096-.062.041-.068.014-.123q-.219.137-.896.499t-1.032.622q.506-.041.725-.178.273-.164.957-.642zm-5.88 3.787l-.122.082.232-.164q-.027.027-.11.082-.464.328-.614.533.177-.041.382-.137t.335-.177.363-.24.314-.212q.205-.109 1.121-.724l.376-.253.376-.253q-.027-.055-.027-.219-.438.315-1.333.861t-1.292.82zm2.653 3.158l-.164.15.164-.15q-1.258 1.08-2.406 1.996.725-.396 1.203-.697l.246-.15q.233-.15.472-.267t.376-.116q.082 0 .11.054v-.82zm-3.554 2.584l.341-.26-.341.26q2.283-1.887 2.351-1.941-1.435 1.12-2.064 1.12-.22 0-.287-.136-.055.383-.055.615t.055.342zm0-1.203l.027-.055-.027.055q.15-.233.56-.588-.04.027-.226.11t-.26.17-.074.226v.082zm.314 2.27l.137-.069-.137.068q.26-.109.506-.246t.547-.335.444-.3.513-.37.45-.32q.22-.151.753-.561.055-.055.055-.192 0-.287-.055-.396-.055.123-.205.239t-.397.26-.287.17q-.205.137-.574.404t-.574.403q-.63.424-1.094.848-.137.096-.137.191 0 .014.007.041t.02.076.028.088zm3.322-1.6l-.136.191q.136-.164.136-.191-.26.342-.58.636t-.93.738-.69.499q1.38-.998 1.79-1.23.246-.151.492-.22-.082-.41-.082-.423zm0 .724q-.232.11-.506.288.096-.041.506-.288zm-.246-3.185l-.219.164q.055-.027.22-.164.163-.123.163-.37 0-.095-.054-.314-.247.178-.992.732t-1.141.868q-.889.601-1.108.984.096.014.205-.007t.246-.095.212-.117.226-.15.164-.11q1.107-.697 2.078-1.421zm3.158-5.633v-.027.027q.028-.027.123-.027.082 0 .11.027 0-.205.027-.287-.082.041-.24.143t-.238.144h.218zm1.094.273q.055.055.055.069-.014-.014-.028-.034t-.027-.035zm-1.148-1.9h-.302q-.123 0-.26.137-.383.191-.861.478-.041.028-.677.39t-.95.567q-1.983 1.162-2.803 1.928.752-.478 1.6-.916.547-.287 1.066-.615.041-.028.28-.212t.335-.185q.123-.013.287-.109t.356-.24l.246-.184q.3-.164.711-.424l.465-.26q.369-.205.588-.3-.014-.014-.041-.028t-.041-.027zm-4.006-2.516q.04-.027.28-.164t.41-.246.322-.26.136-.26q-1.435.917-2.967 1.997.22-.096.479-.24t.437-.252.472-.301.43-.274zm-.834-2.324q0 .014.014.041t.013.041q.055 0 .11-.054-.055-.055-.11-.055-.027 0-.027.027zm-.055 1.34v.027q.014 0 .027-.02t.028-.048.027-.04q.041-.042.103-.13t.11-.151.102-.116q.013-.028.437-.616-.287.205-.615.37-.055.027-.082.061t-.027.062-.014.075-.041.102q-.014.041-.02.192t-.035.232zm1.682-1.285q-.069.014-.164.027t-.13.02-.096.049-.116.123q-.233.273-.479.615-.123.164-.39.513t-.389.526q.957-.533 1.791-1.094.164-.095.192-.123t.027-.096q0-.109.027-.19 0-.056-.013-.185t-.014-.185h-.246zm-4.115 4.512l-.028.027q0 .027.028.027.04 0 .116-.034t.075-.048q-.055 0-.191.028-.288.287-.506.41-.192.314-.424.314-.096 0-.171.171t-.075.335v.055q.547-.342 1.825-1.19t1.976-1.271q.068-.041.56-.356t.78-.464q.068-.028.211-.096t.212-.096q.014-.082.028-.253t.027-.253q-.11.069-.526.363t-.602.41-.526.335-.63.376-.574.28q-.273.11-.437.11v.027q0 .04-.15.246t-.192.232q-.3.205-.806.315zm1.982 2.173q-.15.083-.438.247t-.423.232q-.15.082-.178.13t-.027.184q.615-.492 1.066-.793zm-1.066 3.733q.683-.479.793-.56-.493.245-.616.245-.095 0-.15-.027-.027.082-.027.342zm.082.97v.042q.027 0 .027-.041h-.027q-.192.109-.192.533 0 .11.11.875.369-.315 1.114-.91t1.128-.909q.123-.095.458-.39t.526-.43q.164-.137.164-.3v-.11q-1.176.697-2.351 1.531-.123.082-.363.253t-.362.253q-.055.055-.137.055-.068 0-.068-.082 0-.15.15-.301-.04 0-.177-.068zm.423 5.237q0 .014.622-.465t1.3-1.012.772-.642q-1.176.861-2.133 1.449-.273.178-.67.37-.055.054-.055.081t.076.116.088.103zm2.612 1.217q.082 0 .246.013t.246.014h.123q.41-.37.861-.82.342-.315 2.078-1.846-.26.11-.93.506-.478.273-.505.478 0 .082-.062.137t-.13.055q-.013 0-.04-.014t-.042-.014q-.054-.027-.15-.027-.068 0-.246.137-.164.123-.3.191l-.295.212-.294.212q-.26.164-1.175.793h.191q.068-.068.164-.068.041 0 .123.02t.137.02zm31.018-16.393v.027-.027l.027.069q0 .095-.212.19t-.24.138q-.04.109-.17.232t-.226.137q-.054.027-.246.027-.342 0-.369.027-.027.069-.068.124t-.11.102-.109.082-.15.075-.137.055-.15.055-.137.04l-.171.042-.171.04q-.014 0-.034.055t-.041.117-.034.075q-.028.054-.103.116t-.089.116q-.095.192-.178.274v.054q0 .15-.136.424-.028.137-.164.56-.15.493-.56 1.573-.083.219-.37.807-.014.054-.11.205t-.136.191q0 .055-.082.3 0 .042-.178.48v.027q0 .246-.137.45l-.082.26q-.055.178-.082.26t-.109.212-.205.253q-.082.082-.205.328t-.123.397q0 .055.027.082v.055q0 .082-.082.26t-.15.245q-.055.165-.082.22l-.055.081q0 .028.027.041l.028.055v.055q-.014.082-.137.157t-.137.143q0 .178-.054.288-.041.45-.26.97-.014.014-.096.253t-.15.335q-.15.096-.205.26-.069.369-.22.478-.054.069-.095.226t-.096.24q0 .054-.04.156t-.11.233-.082.17q-.027.07-.096.226t-.095.226q-.041.096-.096.437t-.15.465q-.069.096-.123.328-.22.424-.22.452.11.218.11.246 0 .054-.082.095-.178.123-.396.438-.096.11-.308.226t-.362.116q-.014 0-.055-.014t-.055-.014q-.054-.027-.136-.027-.041 0-.123.014t-.11.013q-.055 0-.164-.054-.096.027-.308.04t-.307.042q-.027 0-.096.013t-.096.014q-.177 0-.26-.082-.027.027-.19.027-.233 0-.288-.027-.054.027-.273.027h-.425q-.013 0-.06.014t-.076.014q-.123 0-.67-.11-.56-.164-1.039-1.736-.068-.164-.348-.697t-.376-.793q-.205-.342-.205-.506-.069-.137-.11-.137h-.191q-.164-.04-.164-.164 0-.096.136-.191.192-.11.192-.205 0-.028-.11-.246-.082-.041-.191-.37-.164.082-.205.082-.096 0-.137-.109v-.027q0-.069.103-.164t.089-.15q-.055-.11-.137-.438 0-.014-.082-.246t-.164-.342q-.137-.164-.233-.362t-.191-.5-.137-.396q-.027.027-.11.027-.067 0-.136-.04t-.068-.083q0-.068.082-.109.123-.082.123-.11l-.014-.04q-.013-.041-.013-.096-.014-.055-.11-.171t-.096-.17.055-.083q0-.082-.191-.37-.028-.04-.13-.17t-.171-.246-.068-.171q-.069-.574-.22-.807-.122.082-.19.082-.11 0-.11-.164t.11-.314q-.014-.041-.09-.137t-.088-.164q-.028-.04-.041-.082t-.02-.096-.021-.082h-.082q-.192 0-.192-.109v-.055q.014-.082.096-.15t.096-.15q-.028-.055-.055-.165t-.027-.123q-.028-.054-.041-.123t-.041-.095-.082-.028h-.082q-.206.041-.206-.054 0-.055.048-.144t.09-.143.027-.055q-.233-.465-.274-.56-.04-.07-.157-.35t-.212-.32q-.137-.096-.137-.192 0-.137.137-.232 0-.028-.014-.082t-.013-.083q-.028-.04-.069-.13t-.068-.13q-.15-.3-.192-.355-.068-.136-.082-.136t-.082.013-.123.014q-.273 0-.273-.15 0-.165.219-.274-.246-.219-.725-.588-.123.082-.219.082t-.15-.027-.137-.027q-.013 0-.061.013t-.13.014q-.041 0-.219-.014t-.205-.014q-.055-.013-.335-.068t-.39-.15q-.136-.137-.136-.506 0-.041.013-.123t.014-.11q-.068-.793-.068-.943-.028.027-.137.027-.164 0-.164-.082 0-.068.055-.123 0-.013.075-.123t.136-.212.035-.102q0-.574.26-.684.163-.11.3-.11.123 0 .15.028.247-.082.48-.082.108 0 .136.028.219-.055.328-.055.205 0 .478.055.192.027.534.027h.136q.315 0 .397.055.26-.11.588-.11.068 0 .205.014t.191.014q.11.013.328-.02t.315-.035q.178 0 .3.082.165-.055.452-.055.054 0 .17-.013t.172-.014h.082q.027-.027.191-.027.574 0 .752.136.055.028.15.028.055 0 .158-.014t.143-.014h.287q.164 0 .246.055.274-.137.506-.137h.137q.068 0 .198-.027t.198-.027h.055q.328.082.37.082.054-.028.109-.028.082 0 .246.055h.136q.288 0 .37.027.027 0 .116-.013t.13-.014q.382 0 .533.11.26.177.26.683 0 .04-.014.116t-.014.103q.028.164.055.492t.055.492l.095-.082q.096-.068.15-.068.07 0 .124.095.027.028.027.082 0 .041-.232.192.082.04.082.11 0 .15-.41.56-.082.095-.178.15t-.164.062-.205.013-.192.007q-.11.055-.164.055-.013 0-.054-.014t-.055-.014q-.164.082-.192.082-.054 0-.13-.054t-.13-.055q-.054-.027-.15.034t-.212.164-.17.13q-.042.069-.11.116t-.116.062-.164.041-.144.041q.205.342.205.437 0 .124-.054.206.136.136.218.533.028.054.137.403t.205.513q.137.232.322.745t.266.69q.082-.082.137-.082.082 0 .082.137 0 .068-.014.178t-.013.123v.027q.027.055.068.157t.068.158q.096.177.233.957.136-.069.191-.069.137 0 .137.15-.014.055-.09.13t-.074.117v.027q.082.082.136.233.206.382.342 1.025.164-.164.506-.164.192 0 .192.164v.055q-.014.109-.247.3t-.232.233v.027q.232.41.314.738.315.63.616 1.532.465-.903.67-1.477.082-.246.294-.731t.293-.732q.028-.082.124-.287t.123-.328q.068-.15.136-.397-.027-.027-.027-.082 0-.109.123-.164.055-.04.103-.109t.061-.116.048-.164.034-.144q.082-.355.219-.615.205-.547.314-.697.014-.041-.034-.13t-.048-.13q0-.027.055-.082.014-.027.103-.082t.116-.082q.082-.055.123-.3t.11-.315q0-.096.074-.308t.09-.28q.273-.93.45-1.149.014-.04.13-.287t.116-.41v-.082q-.164.082-.3.082-.123 0-.123-.082 0-.068.027-.096l.068-.11.028.028q0-.027-.028-.054 0-.11.055-.165h-.082q-.055 0-.185-.027t-.184-.027-.15.04-.137.042q-.014 0-.041-.014t-.041-.014q-.055-.027-.137-.027h-.396q-.055 0-.212-.04t-.226-.042q-.014 0-.055.027t-.068.028q-.014 0-.041-.014t-.041-.014q-.055-.027-.055-.082v-.054l-.11.054q-.054.028-.109.028-.082 0-.082-.082t.041-.219.041-.15q-.027-.11-.027-.342v-.328q-.055-.547-.055-.903 0-.273.028-.41-.055.028-.15.028-.192 0-.192-.096 0-.069.082-.11.205-.095.287-.246.014-.013.055-.04t.055-.042q.027-.013.088-.068t.117-.089.095-.048h.069q.054 0 .143.041t.13.041h.055q.027 0 .075.02t.062.021h.027q.04-.013.116-.048t.116-.047h.11q.177 0 .341.054.082 0 .288-.04t.3-.042h.055q.027 0 .164-.013t.164-.014q.055-.055.137-.055.027 0 .075.014t.075.014h.11q.136 0 .3.054h.069q.273 0 .355.082h.315q.054-.027.136-.027.164 0 .247-.027.054-.028.123-.028.082 0 .109.028.068-.014.287-.11t.356-.082q.123 0 .218.137.041 0 .137-.027t.15-.028q.205 0 .534.11.054-.028.136-.028.137 0 .219-.027h.137q.342 0 .506.082.054-.027.205-.055t.164-.027q.164-.055.424-.055.027 0 .075-.013t.061-.014h.028q.068 0 .314.082.356.027.356.615v.424q0 .014.082.082t.082.137-.055.095q0 .028-.062.09t-.075.102v.11q0 .286-.054.396.109-.055.164-.055.109 0 .109.11v.054q-.014.041-.103.096t-.164.095-.061.082q.246-.082.273-.082.096 0 .15.055zm-3.897-.11l-.219.137q0 .014.082-.034t.165-.102l.082-.055q-.028 0-.11.055-.273.191-.847.553t-.862.54q.15-.027.301-.088t.396-.199.288-.164q.45-.273 1.873-1.257-.192.095-.568.307t-.58.308zm.397-.997q.164-.11.861-.533-.164-.028-.861.533zm-1.463.328q1.012-.547 1.49-.861-.068.013-.13.013h-.096l-.082.02-.116.076q-.191.123-.54.376t-.526.376zm-1.422 1.148q.014.041.178-.068t.232-.178zm.164 1.846q0 .055.055.055t.17-.048.253-.11.26-.13.219-.122l.11-.055q.833-.56 2.324-1.736 1.394-1.012 1.79-1.217.11-.055.124-.082t.013-.137v-.191q0-.11-.054-.137-.082 0-.144.034t-.13.103-.095.082q-.22.164-.814.615t-.902.677-.8.553-.93.56q-.437.247-.752.315-.054.028-.191.028-.37 0-.37-.205 0-.082.028-.11-.055.028-.055.164 0 .082.014.253t.014.253v.082l-.055.233q-.041.178-.082.273zm-.615-3.91h.027-.027q-.014 0-.116.137t-.206.28-.13.17q-.382.466-.888.917.342-.233.725-.472t.881-.533.745-.444q-.082-.055-.205-.055-.054 0-.15.014t-.15.013q-.082 0-.15-.048t-.083-.048q-.055 0-.082.028-.082.04-.137.04h-.054zm-.985.027l-.027.028.027-.028q-.082.082-.191.082-.041 0-.137-.027t-.123-.027q-.137 0-.164.136-.082.328-.164.615.274-.123 1.176-.724-.178 0-.397-.055zm-.861.082q.027-.027.027-.082-.027.028-.027.082zm.055 1.45v-.028.027q-.014-.027.225-.252t.54-.506.328-.308q-.779.465-.93.533-.163.096-.163.178 0 .027.013.089t.014.102q0 .11-.027.164zm1.818 3.787q0 .027.027.027t.09-.055.143-.123.11-.082q.109-.082.286-.225t.322-.26.28-.212q1.654-1.258 2.078-1.572.273-.233.506-.383.055-.041.096-.219t.177-.205h.055q.027 0 .068.014t.069.013.082-.054q.164-.11.458-.335t.444-.335l.205-.137.26-.205.096-.192q-.807.465-2.25 1.573t-2.207 1.558q-.506.287-.616.315-.027 0-.061.013t-.048.014q-.055 0-.11-.014l-.054-.013q-.055 0-.164.11-.068.15-.171.491t-.17.493zm-.219.724q.028-.068.199-.198t.382-.26.253-.157q-.082.055-.287.17t-.342.22-.205.225zm-.793 1.736h.028-.028q0-.027.397-.3t.834-.575.506-.355q.765-.547 1.34-1.121.164-.123.362-.356t.143-.369q0-.027-.027-.027-.055 0-.226.096t-.328.205-.17.11q-.192.15-.527.437t-.615.512-.54.404q-.397.205-.506.218-.096 0-.13.137t-.089.178q-.137.629-.424.806zm2.38.301q-.014.028-.178.15t-.206.165q-.095.068-.28.212t-.28.212q-.793.615-.957.724-1.326 1.053-1.6 1.313.643-.315 2.407-1.45.068-.054.293-.177t.39-.246.219-.246q.04-.096.096-.329t.095-.328zm-1.56 3.842v-.055q-.929.698-1.763 1.203-.492.247-.766.247-.191 0-.191-.137v-.055q-.082.082-.164.082-.055 0-.082-.027-.014.027-.027.123t-.041.137q0 .136-.11.3-.123.164-.3.164-.22 0-.26-.19l-1.511 1.223q-1.005.813-1.51 1.21.218-.028.457-.103t.513-.219.43-.232.479-.294.39-.246q1.504-.889 2.666-1.682.027-.027 1.312-.916.028-.027.15-.11t.165-.122.095-.123.069-.178zm.137-.643q-.027.041-.157.117t-.3.164-.213.116q-.123.082-.396.246t-.396.246q.027-.014.369-.212t.506-.307q.546-.274.587-.37zm-1.312.479q1.326-.82 1.531-.93.287-.11.287-.752-.383.356-1.107 1.012t-.861.78q.027-.028.082-.062t.068-.048zm2.174-2.379l-.11.082q.028-.027.11-.082-.014.055-.15.144t-.308.177-.212.117q-.356.205-.588.369.642-.356 1.258-.807zm-2.735.861q-.013.014-.027.055t-.027.055q.752-.615 1.818-1.395.164-.123.479-.376t.464-.376q.055-.054.26-.198t.335-.267.171-.246q-1.367.834-2.557 1.49-.027.014-.15.09t-.205.102q-.055.027-.205.232-.137.329-.192.41 0 .26-.164.424zm.643-1.394l.3-.178q0-.014-.074.028t-.15.088-.076.062q1.08-.588 2.092-1.23.095-.055.28-.158t.294-.164.253-.17.24-.22q0-.095.088-.252t.103-.212q-.329.246-.978.615t-.813.465q-.055.04-.404.253t-.512.328-.376.335-.267.41zm3.691-3.309q0-.013.014-.04t.014-.042q-.41.438-1.258 1.121.082-.082.349-.239t.43-.157q.15 0 .15.11.178-.206.301-.753zm-5.4 7.219q0 .068-.027.096.492-.424 1.428-1.279t1.033-.936q-.082.055-.417.267t-.554.334-.451.206q-.11.054-.26.054-.11 0-.164-.054-.028.068-.137.396t-.212.533-.24.383zm-1.49-.355q.013.013-.602.615t-.738.697q-.725.766-1.422 1.463 2.652-1.736 2.967-1.914.11-.068.11-.11t-.049-.13-.061-.143q-.041-.068-.103-.24t-.102-.238zm-.383-.561v.027-.027q.055.11.055.164 0 .233-.588.725l.191-.15q.178-.165.335-.274t.253-.11q.041 0 .082.042-.055-.11-.123-.335t-.123-.322q-.027.028-.103.09t-.102.088q.082.041.123.082zm-3.623 1.148l.205-.136-.205.136q.328-.246.977-.745t.964-.745q.164-.11.465-.348t.451-.349q.028-.027.137-.096t.157-.116.048-.116-.027-.123q-.082.068-2.133 1.545-.027.013-.205.143t-.246.178-.212.137-.267.136-.246.076q.041.068.082.225t.055.198zm3.363-2.214l-.164.109.164-.11q-.889.657-1.258.958.985-.643 1.34-.739-.055-.164-.082-.218zm.37-.67l.027-.028-.028.028q.082-.055.219-.192-.246.082-.246.137 0 .014.014.027t.013.028zm-1.97.916l.15-.11q.015 0-.054.055t-.143.116-.09.062q.055-.041.138-.123l.56-.41q.41-.3.643-.452.095-.095.095-.164 0-.082-.054-.246l-.069-.205-.123-.335-.123-.335q-.437.397-1.264 1.087t-1.005.841q.191-.123.608-.403t.745-.479.643-.321h.054q.274 0 .274.11 0 .027-.082.109-.014.04-.062.082t-.109.088-.075.062q-.451.424-2.215 2.064.574-.328 1.559-1.093zm-3.021-1.176l.178-.137q-.178.11-.178.137 1.873-1.45 2.133-1.668 1.23-.93 1.176-1.066l-.547.396-.615.444-.54.37-.65.417-.574.32-.656.322q.246.41.273.465zm3.445-2.461q.014.027-.198.219t-.437.383-.28.218q.697-.396.943-.369.054 0 .054-.082 0-.205-.082-.369zm-.615 1.148l-.055.028q.028-.028.055-.028-.068.041-.212.117t-.212.116q.11-.041.424-.233zm.11.233l-.055.055.164-.123q-.027.04-.11.068-.177.15-.724.52l1.148-.67q.301-.15.37-.192-.055-.11-.055-.164-.069.041-.335.232t-.404.274zm-1.34-.82l.136-.082-.505.341.369-.26q.738-.478 1.257-.86.041-.028.117-.07t.109-.068.062-.061.027-.089-.027-.11q-.055-.095-.144-.293t-.144-.294q-1.668 1.217-2.433 1.873-.41.328-.78.697-.122.123-.122.205 0 .028.013.062t.028.089.027.095q.67-.287 2.01-1.175zm1.093-2.297q-.15-.22-.26-.616-1.011.78-2.064 1.655-.027.027-.205.164t-.349.28-.348.3-.28.288-.076.198q.342-.205 1.012-.588t.998-.588q.178-.095.547-.307t.547-.308q.205-.137.533-.3-.055-.11-.055-.178zm-.752-1.71q.028.028.028.124 0 .177-.342.52-.574.614-2.133 1.886.11-.082.581-.458t.69-.533.61-.397.73-.376q.165-.082.165-.177 0-.041-.062-.158t-.075-.198q-.219-.437-.219-.738l-.526.403q-.348.266-.513.39.656-.397.834-.397.164 0 .232.11zm-4.128.589h.04-.04q.19-.055.396-.199t.438-.335.355-.273q-.574.287-.848.451-.04.027-.116.055t-.123.048-.089.068-.04.103.027.082zm-.643-1.477q.014.014.232-.11t.246-.15q-.082.041-.239.13t-.239.13zm2.857-1.312l-.382.273.437-.342q0 .041-.055.069-.396.273-1.182.806t-1.17.807q-.218.137-.218.178l.055.164.082.164q.287-.274.677-.56t.67-.466.772-.485l.71-.444q2.065-1.286 2.94-1.928h-.191q-.233 0-.37.082-.423.191-.724.355-.52.301-2.05 1.327zm4.375-1.012v.027-.027q-.013-.014-1.408.916.11-.014.178.04l.055.056q.068 0 .136-.069.11-.11.22-.11.095 0 .122.028h.082q.069 0 .157-.034t.199-.096.177-.089q.137-.068.137-.191 0-.055-.027-.191t-.028-.206v-.054zm-.054-.479l-.205.082.205-.082q-.616.246-1.737.93-1.709.97-3.609 2.228 2.516-1.34 3.719-2.064l.622-.376q.417-.253.636-.376.04-.027.157-.075t.164-.103.048-.164zM73.6 30.738q-.397.246-.875.56.478-.314.875-.56zm-1.381 1.49l-.246.165q.355-.274.383-.274-.055.027-.137.11-.014.013-.15.102t-.226.157-.205.164-.178.185-.075.17h.027q.15 0 .356-.136.123-.055 1.039-.725.177-.136.526-.423t.54-.424q.041-.028.15-.096t.171-.116.15-.11.144-.13.082-.136q-.068.055-.984.622t-1.367.896zm3.336-2.488l-.055.028q.027 0 .055-.028l.054-.054q-.068.04-.314.218l.13-.082.13-.082zm2.351.11h.028-.028zm-1.039-2.01l.028.027q0-.027-.028-.027-.04.014-.164.027t-.191.082q-.055.041-.185.123t-.184.123q-.465.342-1.121.752 1.216-.752 1.955-1.052zm-3.582 0q-.054-.014-.15.061t-.219.22-.137.156q.096-.068.308-.205t.308-.205q-.028-.027-.082-.027h-.028zm-3.814 2.488l.177-.11-.177.11q.082-.055.642-.41t.745-.479.602-.417.704-.54.56-.505q-1.654.916-3.581 2.064.054.027.17.144t.158.143zm2.611-2.46h.027-.027q-.055 0-.15.06t-.205.144-.15.096q-.11.068-.336.212t-.335.212q-.095.068-.608.383t-.759.505q1.436-.847 2.912-1.681-.054 0-.184.034t-.185.034zm-4.84 1.394q.082-.137.397-.622t.492-.745l-.294.15q-.239.123-.43.246t-.22.191q.055.137.055.465v.315zm1.614-1.367h.027-.027q-.069 0-.165-.048t-.109-.048q-.096 0-.137.123-.15.191-.369.56-.369.534-.615.971.465-.314 1.38-.834t1.313-.78q-.328.083-.478.083-.137 0-.164-.027-.055-.028-.178-.028-.055 0-.178.014t-.177.014h-.123zm1.011 2.761q.123.123 2.38-1.285 1.735-1.039 2.241-1.45-.164-.054-.273-.054-.3 0-.533.137-.26.164-.766.499t-.752.513q-2.092 1.435-2.351 1.586zm1.285 2.885q0 .055.028.082.232-.191.615-.437-.164.082-.328.082-.342 0-.342-.233 0-.137.15-.328-.027.014-.143.068t-.205.082-.157.014q.054.068.123.191t.143.274.116.205zm.397.984q2.625-2.01 2.94-2.543-.274.082-.595.253t-.534.322-.567.41-.492.355q-.028.014-.315.185t-.464.321-.165.246q.192.192.192.451zm1.49-.396l-.178.15.315-.232q-.014 0-.137.082-.15.096-.554.403t-.622.445q-.177.136-.177.246t.082.232q1.203-1.135 3.062-2.53-.465.247-1.79 1.204zm-.82 2.215v-.028.028q0 .027.027.027t.069-.04.102-.097.089-.082q.273-.273.328-.314.397-.37 1.066-.861-.246.136-.724.417t-.725.417q-.027.013-.095.04t-.117.055-.089.062-.04.075v.027q.013.041.054.137t.055.137zm.82 1.927q0-.04 1.026-.724-.178.082-.506.24t-.493.238q-.095.041-.095.082 0 .028.027.076t.041.088zm.11.397q.068.11.218.615 1.696-1.367 3.104-2.625-.739.41-1.696.97l-.492.268q-.465.253-.806.471t-.329.301zm.41 1.039q.04.055.116.178t.116.178q.342-.315 1.06-.971t1.073-.985q-.15.096-1.04.684t-1.38.834q.055.055.055.082zm.875 1.395l.246-.164q-.055.054-.246.164-.164.095-.164.177l.054.164q1.121-.834 2.01-1.34.15-.109.444-.273t.513-.308.397-.32q-.055-.056-.123-.056-.124 0-.383.137t-.534.315-.314.191q-.52.342-1.9 1.313zm.109.875q0-.014.718-.404t1.442-.902.752-.8q-.11-.014-.232.048t-.301.191-.219.158q-.588.41-.957.615-.738.506-1.203.78-.082.04-.082.108 0 .028.034.103t.048.103zm1.682-.397l-.274.191.301-.218q0 .027-.027.027-.848.574-1.545.93.027.068.089.273t.116.315q.93-.93 1.846-1.887-.192.164-.506.37zm-.985 2.215q.069.137.096.164.3-.246.91-.731t.908-.746q.028-.013.199-.15t.369-.287.396-.315.322-.273.109-.123q-.451.246-2.461 1.504-.943.601-1.012.642l.082.158.082.157zm.26.506q.096.191.3.78 2.804-2.147 3.364-2.571-.096.054-.547.342t-.629.39-.54.307-.656.342-.595.26q-.355.177-.615.177-.082 0-.082-.027zm5.318-.697v-.041q-.109 0-.314.205-.137.082-.465.3-.191.11-.58.356t-.596.355q-.177.123-.553.363t-.67.437-.54.403q.218-.013.485-.17t.56-.39.431-.315q.301-.205.889-.533t.683-.383q.247-.164.534-.287.054-.04.075-.082t.034-.11.027-.108zm.588-1.49l-.054.218q0-.055.054-.219 0-.027-.054-.027-.178 0-.397.11-.164.068-1.476.82-1.053.629-2.748 1.79-.041.014-.24.137t-.39.26-.177.164q.014.055.137.301.41-.328.895-.615t1.155-.643.944-.506l1.572-1.011q.71-.465.78-.78zm-4.99 3.841q.055 0 .11.007t.081.014.041.006q.042 0 .192-.15.273-.219.478-.355.616-.452 1.846-1.204-.588.329-1.682.978t-1.23.731h-.027l.246-.027h-.055zm3.336 0h.027-.027q.11-.068.137-.068h.027l.027-.082q.028-.055.076-.164t.075-.164q.082-.22.266-.602t.24-.492q-.233.068-.452.191t-.533.342-.396.273q-.287.165-1.258.793.027 0 .068-.013t.069-.014q.04 0 .143.014t.144.013q.082 0 .137-.027h.082q.15 0 .232.082.123-.123.219-.15.054-.028.191-.028.027 0 .506.096zm.984 0v.027-.027zm0 .027h.028-.028zm.028 0v.028-.028zm.11.028h-.056.055zm1.284-5.469v.027-.027q0 .014-.095.082t-.212.15-.144.11q-.191.137-.567.43t-.581.431q-.274.233-.834.67t-.834.656q.054-.04.52-.348t.662-.424.568-.28.656-.22h.164q.082 0 .137-.081.287-.397.56-1.176zm3.582-9.379l.055-.055q-.273.206-.937.718t-1.018.773q.096-.055.376-.226t.492-.28.417-.164q.082-.041.178-.041.137.04.137.095 0 .15-.288.301.123 0 .233.11.013-.069.055-.22t.054-.218q0-.11.075-.26t.09-.218v-.055q0-.014.081-.26zm1.518-1.121q.082.014.232-.096t.192-.123h.136q.028 0 .11-.054.506-.356.478-.643-1.203.807-1.148.916zm22.897 8.04q.027.026.027.081 0 .068-.273.342-.137.11-.137.164 0 .027.027.096t.028.123q.027.082.027.314v.589q.014 0 .04-.014t.042-.013q.11 0 .11.11v.054q0 .027-.042.068t-.082.069l-.04.04q.054.274.054.493v.177q0 .315-.055.534-.013.082-.027.39t-.082.444q-.027.068-.144.184t-.143.157q0 .082-.137.356-.027.205-.253.506t-.253.369q-.027.055-.054.055v.136q0 .219-.165.342-.328.219-.71.274.027.054.027.136 0 .424-.67.875-.191.192-.451.192h-.055q-.096 0-.273.184t-.342.185q-.11.013-.28-.123t-.226-.137h-.055q-.068.041-.205.13t-.205.13q-.11.054-.178.054-.027 0-.068-.013t-.068-.014q-.096.027-.164.15t-.164.15q-.15 0-.206-.026-.095.095-.164.123h-.136q-.096 0-.15.027h-.193q-.054 0-.163.055t-.205.054h-.082q-.082.055-.219.055-.068 0-.342-.055-.082 0-.355-.054h-.178q-.014 0-.062-.014t-.075-.014q-.04 0-.143.014t-.158.014q-.068 0-.177-.055-.082-.027-.192-.027-.164 0-.246.054-.082.028-.205.028-.11 0-.3-.055t-.26-.068q-.328-.028-.923-.22t-.69-.218q-.507-.123-.739-.26-.506-.082-.67-.218-.205-.069-.451-.315-.246-.082-.355-.246-.069-.027-.37-.26-.04.041-.109.178t-.191.219q.054.027.054.082t-.205.26q-.04.013-.137.218-.082.123-.334.233t-.445.11q-.027 0-.075-.015t-.062-.013h-.068q-.04 0-.13.04t-.143.042q-.014 0-.041-.014t-.041-.014q-.041 0-.37-.082-.054 0-.157.048t-.17.062q-.083.013-.13-.09t-.076-.115q-.26.04-.396-.144t-.137-.472q0-.164.027-.246 0-.013.014-.061t.014-.075q0-.055-.028-.178t-.027-.191q0-.014.014-.055t.013-.055q-.027-.082-.027-.219 0-.082.014-.273t.013-.287v-.15q-.027.027-.109.027-.137 0-.137-.137 0-.055.028-.082.054-.055.218-.164-.027-.055-.027-.232-.096-.26-.164-.807 0-.615.11-.902-.055-.164-.055-.383 0-.096.013-.287t.014-.274q-.027.028-.082.028-.082 0-.082-.137 0-.26.082-.342.055-.11.055-.396v-.301q0-.205.027-.287v-.055q0-.396.506-.56.055-.028.137-.028h.505q.15 0 .315.055.506 0 .752.027.068 0 .246-.014t.26-.013q.369 0 .506.178.15.15.355 1.08.274-.137.37-.137.081 0 .081.082 0 .096-.027.123-.014.055-.157.17t-.144.158q.082.178.137.424.082.123.17.41t.13.37q.069.04.254.074t.307.096.123.171q0 .068-.095.219.04.068.341.369.082.055.246.219.028.013.117.068t.164.103.116.088h.055q.04 0 .116-.047t.116-.048h.027q.11.04.11.123t-.055.136q.205.096.643.165t.642.164q.082.054.321.143t.322.144q.082.027.219.027h.259q.15 0 .533-.164.055-.027.192-.027h.396q.096-.028.28-.041t.28-.041q.015 0 .049-.02t.061-.021q.15 0 .397.123.027-.014.102-.02t.144-.035q.055-.027.15-.089t.15-.089l.083-.04.082-.042.068-.04.062-.049.034-.054.013-.076q0-.123.124-.225t.136-.171q.014-.11.137-.212t.137-.157q.013-.028.02-.075t.02-.09.042-.081q0-.15.082-.397 0-.027-.014-.102t-.014-.117v-.054q-.04-.096-.082-.335t-.054-.308q-.014-.04-.041-.089t-.076-.102-.082-.082-.109-.082-.089-.069q-.068-.027-.287-.088t-.328-.13q-.027 0-.137-.041t-.164-.041-.137.054-.123.055h-.054q-.082 0-.137-.055 0-.054-.027-.054-.055 0-.11.054h-.11q-.259 0-.34-.027-.192-.055-.192-.26 0-.082.11-.082h.054q.068.014.11.069.013.013.026.013.055 0 .11-.027-.11-.069-.315-.082t-.273-.028q-.041-.027-.26-.082t-.246-.082q-.547-.054-.834-.15-.055-.014-.191-.02t-.233-.028-.136-.089q-.082-.013-.247-.027t-.232-.027q-.11.013-.3-.062t-.404-.178-.294-.13q-.164-.082-.684-.082-.054 0-.177.014t-.178.014h-.082q-.055-.014-.103-.062t-.075-.048-.082.028q-.11.054-.137.054-.095 0-.136-.136v-.11q0-.04.013-.068t.014-.041q0-.027-.11-.096-.327-.164-.505-.164-.219.041-.711-.246-.096-.04-.3-.17t-.315-.172q-.493.164-.56.164-.028 0-.07-.013t-.068-.014q-.191-.041-.191-.164t.273-.328q-.629-.41-.943-.848-.123.082-.178.082-.082 0-.082-.219 0-.26-.027-.314-.123-.123-.191-.56-.22-.588-.22-1.258-.068-.178-.068-.506-.013-.164-.04-.178-.042 0-.096-.096 0-.013-.014-.027t-.014-.027q0-.069.164-.233v-.218q0-.069.014-.192t.014-.178q0-.136.068-.41 0-.205.082-.287 0-.027-.04-.102t-.042-.117q.014-.068.082-.109t.082-.055q.014-.04.028-.102t.027-.103q0-.027.027-.13t.055-.17q0-.301.082-.506.027-.069.089-.171t.089-.171q.054-.11.218-.219.055-.041.171-.185t.253-.184v-.082q0-.315.055-.37.096-.15.383-.355t.314-.232q.041-.055.09-.103t.102-.095.082-.076q.246-.191.396-.246.055-.04.178-.157t.219-.157q.232-.123.697-.274t.533-.177q.027-.028.11-.028.123 0 .164.11.205-.055.205-.082.013-.028.061-.09t.082-.095.075-.082.096-.068.123-.02l.205.054.356-.178q.013 0 .061-.014t.062-.013q.082 0 .218.096.15-.206.342-.206.069 0 .205-.04t.205-.042h.055q.178 0 .315.137.027-.027.164-.027h.136q.055 0 .171.027t.171.027q.014 0 .055-.013t.054-.014h.055q.287 0 .397.055.054-.028.136-.028.096 0 .301.062t.287.062q.096 0 .178-.041.027-.028.137-.028.15 0 .355.069.342 0 .506.082.219.054.26.054.082 0 .246-.054.014 0 .048-.014t.061-.014q.26 0 .26.11 0 .054-.082.136l.588.11q.027.027.11.027h.136q.082 0 .082.082v.096q0 .04.02.061t.069.048.075.055q.096.055.3.24t.329.238q.068.014.11.069.013.013.027.013l.11-.054q.067-.028.108-.062t.076-.075.048-.068.054-.09.055-.102q-.014-.273.191-.403t.506-.13q.041 0 .103.014t.089.013h.191q.15 0 .205-.027l.246-.082h.027q.096.014.165.048t.095.034q.014 0 .034-.007t.069-.02.089-.028q.109-.054.273-.054.205 0 .287.027.178.014.301.164t.123.314q0 .082-.055.192 0 .437-.095.67l.095.67q.055.383.055.629 0 .218-.055.492v.123q0 .178.041.547t.041.56q0 .26-.027.37.027.054.027.232 0 .137-.027.191.027.096.062.116t.088.028.096.075l.027.055q0 .082-.157.205t-.143.219q.013 0 .04-.014t.042-.014q.136 0 .136.137 0 .15-.109.205t-.11.137v.136q.055-.054.137-.054.11 0 .11.11 0 .163-.164.286-.11.11-.11.246v.137q0 .164-.095.26-.26.219-.643.219-.314 0-.588-.137-.219.054-.328.054-.26 0-.588-.054-.027.027-.082.027h-.178q-.027.014-.15.089t-.205.103h-.055q-.15 0-.15-.137 0-.082.055-.11-.438 0-.438-.82 0-.191.055-.355-.028-.301-.26-.903-.15.11-.3.11-.083 0-.083-.055 0-.137.246-.3-.04-.042-.075-.09t-.068-.109-.048-.089q-.069-.123-.226-.314t-.198-.246q-.424-.247-.615-.534-.123-.082-.164-.082-.014 0-.178.123-.027.028-.082.028-.11 0-.11-.15 0-.096.083-.137-.22-.069-.561-.335t-.478-.335q-.561-.11-.616-.164-.054.027-.218.027-.11 0-.335-.041t-.335-.041q-.028 0-.082.014t-.082.013q-.329.11-.342.11-.123 0-.164-.082 0-.014-.075.013t-.165.062-.13.034q-.095-.014-.307.103t-.335.116q-.055 0-.164-.055-.274.137-.533.137-.096.013-.226.089t-.266.184-.206.15q-.546.37-.56.397-.205.588-.205.861 0 .301.178.616.15-.11.246-.11.082 0 .082.137 0 .041-.014.178t-.014.191v.055q.055.082.294.184t.294.158q.164.04.609.198t.704.184q.11-.013.355.076t.356.075q.04 0 .136.04t.137.042q.205.068.246.11.055-.028.26-.028.232.096.772.17t.8.185q.069 0 .246.069t.22.11q.054.013.184.026t.184.028h.11q.095 0 .294.048t.239.061q.396 0 .78.192.273.027.956.533.3.027.807.287.082 0 .178.075t.136.089q.356-.219.451-.246.082-.014.123.034t.041.13q0 .055-.054.164-.028.055-.055.103t-.04.068-.015.034q0 .041.11.11.136.081.43.205t.431.205l.068.04q.055 0 .144-.081t.157-.096q.014 0 .028-.014t.027-.013q.137 0 .137.164v.095q0 .014.013.014.041.014.055.068.027.028.027.082 0 .082-.075.185t-.075.116v.028q.014.027.061.088t.062.09q.355.327.492 1.366.205-.136.315-.136.123 0 .164.11zm-.944 1.038q0-.055-.027-.11-.219.178-.65.472t-.594.417l.403-.191q.376-.178.615-.328t.253-.26zm-.765 3.104l.177-.082q-.054 0-.177.082.027-.014.198-.076t.267-.13.123-.15q-.137.096-.588.356zm-2.653-1.121q.246-.192.766-.554t.766-.54q-.862.601-1.203.793-.274.164-.41.219-.124.082-.124.109v.15q.028-.027.103-.089t.102-.088zm-2.242 3.117l-.26.164.793-.506q-.136.096-.533.342-1.435.943-2.133 1.531 3.72-2.379 5.852-3.61.178-.095.725-.396t.847-.437q.069-.028.198-.09t.199-.088q.082-.041.082-.41 0-.069-.014-.15l-.014-.083q-5.236 3.391-5.742 3.733zm1.34-1.408l.793-.479q-.014.014-.034.027t-.089.055l-.137.082-.15.089-.144.089-.123.075-.089.048-.027.014q1.176-.698 2.72-1.655l.54-.335q.363-.225.554-.335l.192-.095.266-.158.103-.13q-1.996.944-2.775 1.45-.725.45-1.176.806-.041.082-.157.158t-.274.136-.212.103q.082.04.082.137.028-.014.069-.041t.068-.041zm3.732-4.034l.137-.082q-.055.028-.137.082.028-.013.103-.054t.13-.076.116-.082.096-.088.02-.082q-.218.218-.465.382zm-1.572-2.884l-.055.054.055-.027v-.027q-.52.437-2.406 1.818l1.367-.8q.902-.527 1.367-.786-.04-.041-.17-.123t-.158-.11zm1.572 1.093l-.123.082q.028 0 .076-.034t.047-.048q-.287.26-.847.739t-.834.724q-.069.069-.294.253t-.335.28-.26.26-.232.328q.273-.082.594-.253t.54-.307.588-.39.52-.349q.137-.095.43-.293t.431-.294q-.027-.082-.082-.301-.027-.069-.219-.397zm-6.918 1.313l.11-.082q-.11.054-.11.082.22-.123.575-.362t.45-.308q-.04.027-.45.28t-.63.362q.055 0 .055.028zm.698-1.285l.219-.137q-.356.191-.356.219.055-.028.137-.082.177-.11.704-.445t.793-.506.67-.471.69-.588q-.027-.027-.082-.027-.137 0-.355.13t-.472.32-.294.22q-.861.56-1.408.957-1.272.888-2.242 1.449.082.027.205.027.082 0 .157-.027t.11-.048.143-.096.15-.102q1.217-.78 1.23-.793zm3.158-1.819q-.027-.027-.082-.027-.027 0-.062.041t-.075.068q.055-.027.192-.027h.082q0-.055-.055-.055zm-1.203.903l-.082.054.342-.205q-.096.041-.26.15-.205.137-.609.418t-.622.417q1.696-.916 2.407-1.422-.123.013-.246.054t-.26.117-.219.123-.246.157zm1.463-.37q-.028.028-.028.055 0 .014.082-.054 0-.028-.027-.028l-.027.028q-.082.123-.199.232t-.334.273-.26.192q.246-.137.724-.417t.711-.417q-.246-.082-.287-.11-.219.164-.355.247zm-1.463-1.039q-.014 0-.055-.013t-.055-.014-.034.007-.034.014-.034.027l-.034.034-.034.041-.035.048-.034.055-.034.061q-.164.192-.684.643-.834.738-2.433 1.873.52-.315 1.86-1.251t2.118-1.374q-.082 0-.253-.069t-.225-.082zm-4.225 1.436l.67-.396q.014 0-.164.102t-.362.212-.198.11l.054-.028q2.31-1.354 2.912-1.654-.164-.055-.191-.055-.055 0-.178.082-.068.041-.219.123t-.218.123q-.67.438-1.463.848l-.732.424-.827.478q-.259.15-.683.424t-.752.52q.054.013.198-.048t.273-.137.287-.178.171-.116q.301-.15.8-.458t.622-.376zm1.6-.615l-.055.054.055-.054q-.069.04-.198.11t-.199.109q.096-.041.397-.22zm-3.172 2.01l.055-.028h-.028q-.027 0-.027.028.957-.547 1.408-.862-.847.397-1.6.834h.083q.082 0 .109.028zm2.379-3.555h.027-.027q.068-.028-.37.383 0 .013-.027.027l-.04.041q-.903.629-1.354.97l-.328.26q-.26.205-.363.288t-.32.266-.343.301-.287.287-.287.335q.082.041.3-.075t.48-.287.314-.199q.219-.136.677-.403t.69-.403q.451-.26 1.347-.78t1.346-.765q-.15-.027-.45-.055t-.329-.027q-.082 0-.328-.062t-.328-.102zm-.725-.137q-.054 0-.082-.014-.013-.013-.027-.013l-.082.082q-.069.082-.315.273-.765.657-.943.793.096-.054.56-.355t.766-.458.602-.253q-.082-.055-.479-.055zm-1.12-.314h-.028.027l-.328-.11q-.055 0-.116.041t-.123.11-.103.095q-.396.397-.806.766-.916.82-2.325 1.928.11.11.246.11.124 0 .534-.274.506-.301 1.23-.793 1.572-1.04 2.406-1.668-.068-.069-.136-.069h-.164q-.233-.123-.315-.136zm-1.177-.479h-.027.027q-.26 0-.56-.383-.52.438-1.716 1.238t-1.757 1.305h.028l.587-.41q.451-.315.67-.458t.588-.39.697-.423.657-.328q.3-.15.642-.15.22 0 .22.15 0 .068-.083.191.027-.014.082-.048t.103-.068.102-.075q-.068-.028-.26-.15zm-2.091 1.326l.191-.123-.342.205q.041-.027.15-.082l.452-.225.499-.26.43-.26.41-.321q-.328.027-.874.396-.616.342-2.065 1.313.807-.479 1.149-.643zm.86-.177l-.614.396q.164-.082.615-.396-.096.054-.896.478t-1.196.697q.178-.054.376-.143t.349-.171.369-.219.328-.198.355-.232.315-.212zm-2.939.738q0-.014.069-.082t.205-.164.28-.198.321-.22.308-.197.253-.165.137-.095q1.545-1.08 1.873-1.381 0-.027-.028-.055-1.298.916-2.351 1.545-.82.451-1.094.533-.055.028-.055.137 0 .096.082.342zm1.067-6.276v.028-.028q.055.11.055.165.054-.055.17-.15t.171-.151h-.068q-.328 0-.328.11v.026zm4.457-1.408l-.205.15.287-.204q-.027.027-.082.054-.861.56-2.98 1.887-.301.191-.876.54t-.86.526q-.056.041-.247.137t-.28.157-.199.185-.136.246q.642-.383 1.934-1.176t1.935-1.176q1.846-1.107 2.844-1.873h-.192q-.11 0-.218.055-.11.082-.725.492zm2.201-.465l-1.565.903q-1.045.602-1.566.916.164-.055.274-.055h.095q.096.014.178.075t.123.062q.082 0 .164-.055.178-.11.527-.335t.54-.335q1.12-.765 1.572-1.203-.041 0-.137.014t-.15.013h-.055zm1.545.082q-.055 0-.055.055.082 0 .082-.055h-.027zm-2.324 1.45q-.014 0-.028.013t-.027.014q.246-.082.3-.082.042 0 .151.055.055-.028.055-.055l.328-.246q.11-.068.321-.226t.322-.225q-.233.123-.704.376t-.718.376zm3.842-1.026l-.069.055.069-.027v-.028q-.247.205-.479.438.37-.274.643-.301-.028-.027-.082-.068t-.082-.069zm-2.885 1.08h.027-.027q.11-.054.137-.082-.028 0-.083.035t-.054.047zm-4.936 2.694q0-.028-.027-.028v.055l.027-.027v-.055q0-.232.055-.342-.533.506-1.607 1.518t-1.606 1.517q.356-.136.684-.355t.827-.622.608-.485q.028-.014.226-.178t.424-.301.362-.137q.096 0 .137.082l-.076-.225-.061-.28q0-.11.027-.137zm1.627-1.955q.028-.014.069-.055t.075-.062.075-.034q-.041.014-.075.034t-.075.062-.069.055zm-4.867 2.857q0 .014.41-.219t.67-.396q.246-.137.738-.424t.752-.424q.123-.068.363-.212t.362-.212q.041-.027.164-.089t.198-.102.157-.11.096-.136q.219-.588.82-.957-1.435.834-2.912 1.681-.246.137-.752.431t-.765.43q-.137.07-.192.172t-.068.294-.041.273zm-.027 1.422h.027-.027q0-.014.225-.205t.267-.219q.178-.191 1.039-.97 1.066-1.012 1.6-1.49-.165.109-2.352 1.599-.232.178-.82.533.04.246.04.533v.219zm.164.834q.218-.068.218-.11 0-.027-.027-.027-.055 0-.191.137.205-.055.396-.144t.5-.287.334-.212q1.067-.642 2.188-1.422-.15-.095-.15-.341 0 .123-.083.246t-.253.253-.287.205-.314.184-.212.123q-.192.123-.677.39t-.84.506-.602.499zm8.982-5.674h.069l.047-.007.041-.013.035-.014.04-.034.042-.034.047-.048.048-.055q.069-.068.233-.212t.246-.225q-.178.095-.506.293t-.506.294q.11.055.164.055zm1.6.889v-.028.028q.054.027.355-.267t.663-.69.376-.41q-.068-.041-.239.02t-.403.212-.43.287-.411.3-.253.192h-.055q-.164 0-.164-.15 0-.027.028-.055l.246-.328q.095-.123.3-.383t.301-.383q-.506.247-1.463.93.328.164.616.451.52.26.533.274zm4.43 1.654v.027-.027q.013.027-.247.287t-.622.609-.376.362q.041-.014.465-.287t.656-.383q.15-.082.15-.191 0-.041-.013-.15t-.014-.165v-.082zm0 .875q0-.027-.459.267t-.963.629-.575.362q.028.027.082.027.164 0 .588-.314.164-.11.458-.322t.445-.32l.116-.062q.089-.048.137-.082t.102-.09.068-.095zm-.069-1.914v.027-.027q-.232.232-.923.807t-1.005.957q.807-.479 1.34-.78.178-.109.63-.369.026 0 .026-.136 0-.342-.068-.479zm-.547 1.258q-.902.547-1.353.793-.192.096-.192.191v.11q0 .095-.027.205v.054q0 .041-.014.171t-.013.185q0 .15.054.15 0-.013-.013-.027t-.014-.027q0-.096.116-.247t.28-.32.192-.2q.3-.3.984-1.038zm.465-3.46v-.068q-.437.452-1.292 1.36t-1.278 1.361q.287-.164 1.449-1.066.602-.533.957-.588.246-.041.246.137 0 .26-.328.587-.451.479-1.258 1.094.192-.123.861-.465.493-.369.67-.369h.055v-.45q0-.397.068-.67-.013-.097-.082-.37t-.068-.41v-.082zm-1.846.083h.028-.028q0 .014.041-.02t.09-.069.06-.034zm-.806.3q-.123.124-.383.377t-.383.376q.547-.37.957-.643-.04-.014-.11-.061t-.081-.048zm.3.37q-.013 0 .15-.116t.329-.226l.164-.11q-.164.11-.642.452.328-.233 1.162-.656t1.162-.63q-.383.083-.868.342t-.698.41-.758.534zm1.204-1.094l.054-.027-.054.027q.341-.164.369-.191-.082 0-.37.191zm-1.955 2.912q.123.082.136.082.041 0 .233-.191.095-.11.403-.438t.458-.52q.902-.956 1.367-1.421-.93.506-1.476.861-.123.069-.5.301t-.567.342l-.123.082q-.137.082-.266.143t-.199.062q-.082 0-.082-.082 0-.069.028-.123-.11.11-.192.15.492.397.78.752zm.505.697q.096.096 1.128-.779t1.251-1.176q-.232.096-.458.253t-.526.41-.41.335q-.055.041-.315.246t-.437.308-.37.157q.028.041.069.123t.068.123zm.22.397q.026.055.088.164t.089.164q.219-.37.97-.998l-.341.185q-.314.17-.568.314t-.239.17zm-1.122-3.897q-.014-.013-.15.171t-.294.39-.171.219q.164-.096.451-.274t.451-.273q-.232-.164-.287-.233zm-2.174-.218q.123-.069.376-.226t.376-.226q-.137.014-.26.076t-.3.212-.192.164zm-.287-.588l-.137.082q.028-.028.137-.082-.055-.028-.137-.028-.205 0-.478.274-.533.465-.984.752.287-.15.813-.506t.786-.492zm-1.572-.11q-.178.069-.485.301t-.404.287q.082-.04 1.012-.56-.027 0-.068-.014t-.055-.014zm-3.158.301q-.028.028-.028.055l.055-.055h-.027q-.123.137-.383.164t-.37.15q-.478.534-.874.753-.123.068-.643.533-.04.04-.41.369t-.574.492q-.082.082-.28.315t-.308.328q.41-.205.834-.486t.97-.697.78-.581q1.271-.834 2.242-1.422-.055.027-.15.027-.11 0-.164-.027h-.055q-.055 0-.13.027t-.116.028q-.137-.027-.205-.027-.055 0-.164.054zm-2.885 9.16h.027-.027q.055.055.11.055t.136-.082q.082-.055.232-.205.288-.205.534-.41.191-.15.546-.465t.547-.465q.752-.615 1.258-1.121-2.201 1.531-3.254 2.023-.328.164-.533.192-.123.014-.198-.048t-.075-.144q0-.123.109-.232-.219.15-.219.232 0 .028.028.055t.088.082.103.11q.123.04.321.211t.267.212zm-.164.643l-.082.082q.027-.014.082-.027t.082-.028q-.027-.027-.082-.027zm1.873-.615l-.192.11q.028 0 .192-.11-.3.205-.752.45.04.028.123 0t.178-.095.17-.123.172-.137.109-.095zm.027.752h.028-.028q.096 0 .315.109.04-.055.123-.15t.123-.15q.205-.206.642-.589.56-.492 1.6-1.285-1.764 1.04-3.227 1.955.055.014.171.062t.199.048h.054zm2.598.806h.04-.04q.082 0 .232.09t.246.088q.055 0 .144-.055t.205-.15.13-.11q.793-.546 1.6-1.148 1.53-1.121 2.064-1.79-.055-.028-.164-.028-.082 0-.164.054t-.185.171-.157.171q-.492.37-1.23.698-.602.3-1.627.99t-1.395.91q.041.014.144.061t.157.048zm3.062.711h.028-.028q.096 0 .28.069t.28.068q.11 0 .192-.055.22-.15.636-.458t.622-.471q1.463-.998 2.516-1.873-.069-.041-.28.075t-.472.3-.301.212q-.205.11-1.203.725-.479.273-1.374.793t-1.005.588q.055.027.11.027zm2.598.998q.588.301.588 1.149 1.531-.944 2.297-1.504l.205-.137.342-.246q.15-.109.335-.26t.28-.273.068-.205q-1.258.875-2.515 1.572-.575.328-.78.328t-.205-.164q0-.246.233-.478.177-.22.417-.458t.424-.39.499-.417.45-.39q.028-.027.281-.225t.444-.376.164-.233q-.054-.054-.109-.054t-.137.054q-1.162.684-1.258.725-1.886 1.107-2.584 1.6.069.04.199.109t.218.13.144.143zm-1.6 4.266l-.027.027.027-.027q-.136.137-.328.137-.136 0-.191-.028-.356.301-.506.397-.506.396-1.203.834.164-.096.513-.294t.512-.294q.219-.11.732-.41t.471-.342zm-2.173.328l-.11.082q.028 0 .069-.034t.04-.048q-.095.068-.369.246t-.417.274-.348.26-.356.314q.793-.383 1.846-1.067-.041 0-.11.014t-.109.014q-.027 0-.136-.055zm-1.791-.56q-.096 0-.123-.028.027.027.027.11 0 .26-.492 1.408.902-.67 1.64-1.121-.11-.028-.266-.11t-.226-.11q-.424-.068-.56-.15zm-.903-.274q-.068-.014-.184.082t-.253.267-.253.335-.233.335-.143.212q.123-.083.383-.274t.423-.308.41-.246.465-.184q-.341 0-.615-.219zm-4.976.67q0-.027.095-.096t.253-.164.356-.205.41-.219.39-.205.314-.17.164-.09q.656-.341 1.176-.724.164-.123.164-.164 0-.055-.137-.15-.136-.042-.834.423-.232.15-.65.43t-.47.322q-.07.041-.308.192t-.404.26-.328.273-.191.287zm1.586-.424l-.329.205.356-.232-.027.027q-.096.055-.616.362t-.806.458q-.164.096-.164.192v.779q.04 0 .123-.089t.177-.198.11-.123q.055-.055.157-.164t.198-.205.178-.164q.807-.807 1.23-1.203-.45.26-.587.355zm2.433-.3l-.11.054q.028 0 .11-.055.069-.04.198-.13t.199-.13q-.028-.027-.082-.027-.342 0-1.395.793.178-.082.533-.253t.547-.253zm0-.561q-.205-.096-.437-.451 0-.028-.055-.028t-.164.11-.226.266-.143.185q-.957.916-1.887 1.846.479-.247 1.45-.91t1.558-.936q-.014-.014-.048-.041t-.048-.041zm-1.64-2.38q-.014-.054-.13.076t-.253.3-.15.185q-.48.561-1.49 1.682.327-.205 1.01-.595t1.013-.58q.3-.151.3-.26l-.054-.22q-.233-.45-.246-.587zm-2.502 2.352l.287-.314q-.287.287-.287.314 1.039-1.134 1.79-2.023-.136.082-.744.54t-.964.581q-.164.082-.164.342 0 .15.082.56zm1.996-3.609q-.041.014-.082.02t-.055.014-.034.007-.028.02-.02.042l-.041.061q-.082.137-.246.356-.219.273-1.067 1.244.274-.164.834-.492t.848-.493q.192-.095.192-.164 0-.027-.007-.068t-.02-.11l-.028-.136q-.028-.055-.048-.116t-.034-.09-.048-.054-.116-.04zm-1.381 0h-.027.027q-.055.055-.192.055-.15 0-.396-.082-.082.123-.082.273v.397q.41-.22 1.039-.616-.232 0-.37-.027zm-.192.697l-.027.028.137-.11q-.028.028-.11.082-.246.123-.45.246.027.082.027.288.027.164.027.56.11-.123.37-.403t.41-.445.348-.417.335-.471q-.848.506-1.067.642zm.534 2.994q-.041.014-.246.11t-.315.157-.225.171-.117.232q0 .014.014.055t.014.055q.218-.164.67-.513t.683-.526q-.082.04-.24.13t-.238.13zm2.351 1.71v-.028.027q.055.014.13.09t.116.075.096-.055q.082-.096.205-.253t.15-.198q.506-.643.725-.889-1.107.71-1.64.943.15.15.218.287zm1.572.751h-.027.027q.028.014.062.028t.048.02.027.007l.082-.164q.028-.055.069-.17t.068-.172q.041-.15.157-.444t.157-.417q-.273.164-.793.499t-.779.485q.205.164.451.246.246 0 .451.082zm.971.397q.069 0 .212.055t.212.054q.082.014.212-.048t.226-.123.239-.177.17-.13q1.08-.725 1.505-1.04-.971.589-1.928 1.15-.055.026-.178.102t-.225.123-.185.061q-.164 0-.164-.164 0-.205.082-.287.068-.096.15-.184t.192-.178.184-.15.219-.165.198-.136.219-.144l.205-.137q-.082-.013-.232.069t-.287.177-.308.233-.212.164q-.178.11-.492.335t-.479.335q.41.205.465.205zm1.176.246q.055-.027.314-.027.274 0 .301.027.41-.355.588-.479.274-.218.8-.574t.663-.45q-.314.19-.902.512t-.807.458q-.916.547-.957.533zm4.006-.164l.027-.055q-.055 0-.055.028t.028.027q.15-.191.342-.191.136 0 .191.054.082.082.137.082.013 0 .232-.164.123-.082.246-.205.192-.068.397-.225t.444-.37.362-.294q.465-.341 1.258-.984l.205-.15q.15-.11.226-.171t.164-.185.116-.246q-.396.246-1.271.677t-1.285.69q-1.409.875-3.022 1.983.11.013.287-.055t.246-.082.26-.116.3-.103q.055 0 .165.055zm1.79-.506l.056-.055q-.055.028-.055.055.055-.04.191-.13t.198-.137.158-.136.164-.185q-.356.301-.506.397-.014.013-.075.048l-.123.068-.062.048q0 .027.055.027zm1.97-1.545q-.041.096-.739.56h.205q.041 0 .274-.163.164-.137.26-.397zm-1.97 2.133l.083-.082-.11.055z"/></svg>